<?xml version="1.0" encoding="UTF-8" standalone="no"?>
<svg width="307px" height="273px" viewBox="0 0 307 273" version="1.1" xmlns="http://www.w3.org/2000/svg" xmlns:xlink="http://www.w3.org/1999/xlink">
    <!-- Generator: Sketch 50.2 (55047) - http://www.bohemiancoding.com/sketch -->
    <title>traa_logo-MASTER</title>
    <desc>Created with Sketch.</desc>
    <defs></defs>
    <g id="Mobile" stroke="none" stroke-width="1" fill="none" fill-rule="evenodd">
        <g id="iPhone-X---Shop-Copy" transform="translate(-32.000000, -182.000000)">
            <g id="traa_logo-MASTER" transform="translate(31.000000, 181.000000)">
                <g>
                    <ellipse id="XMLID_23_" stroke="#9ABD4B" stroke-width="4.4111" fill="#FFFFFF" fill-rule="nonzero" cx="159.859024" cy="120.188587" rx="116.802439" ry="116.828804"></ellipse>
                    <g id="XMLID_222_" transform="translate(99.243902, 70.250000)" fill="#5D7132" fill-rule="nonzero">
                        <path d="M23.6658537,27.1836957 L27.024878,27.1836957 L14.0468293,0.152717391 L1.06878049,27.1836957 L4.5804878,27.1836957 L1.22146341,34.361413 L4.5804878,34.361413 L1.22146341,41.5391304 L12.52,41.5391304 L12.52,47.8005435 C12.52,48.7168478 13.2834146,49.4804348 14.1995122,49.4804348 C15.1156098,49.4804348 15.8790244,48.7168478 15.8790244,47.8005435 L15.8790244,41.5391304 L27.177561,41.5391304 L23.8185366,34.361413 L27.177561,34.361413 L23.6658537,27.1836957 Z" id="XMLID_225_"></path>
                        <path d="M15.7263415,41.5391304 L27.024878,41.5391304 L23.6658537,34.361413 L27.024878,34.361413 L23.6658537,27.1836957 L27.024878,27.1836957 L14.0468293,0.152717391 L14.0468293,49.3277174 C14.9629268,49.3277174 15.7263415,48.5641304 15.7263415,47.6478261 L15.7263415,41.5391304 Z" id="XMLID_224_"></path>
                    </g>
                    <path d="M241.697073,146.761413 C241.697073,146.761413 225.970732,144.928804 220.016098,158.367935 C220.016098,158.367935 217.725854,167.683696 211.618537,170.585326 C211.618537,170.585326 230.856585,165.240217 237.116585,160.96413 C237.116585,160.96413 244.14,153.022826 246.73561,151.0375" id="XMLID_43_" stroke="#FFFFFF" stroke-width="6" fill="#FFFFFF" fill-rule="nonzero" stroke-linejoin="round"></path>
                    <g id="XMLID_217_" transform="translate(221.390244, 50.396739)" fill="#5D7132" fill-rule="nonzero">
                        <path d="M33.284878,40.6228261 L38.3234146,40.6228261 L19.2380488,0.610869565 L0.152682927,40.6228261 L5.19121951,40.6228261 L0.152682927,51.1603261 L5.19121951,51.1603261 L0.152682927,61.6978261 L16.795122,61.6978261 L16.795122,70.8608696 C16.795122,72.2353261 17.8639024,73.3043478 19.2380488,73.3043478 C20.6121951,73.3043478 21.6809756,72.2353261 21.6809756,70.8608696 L21.6809756,61.6978261 L38.3234146,61.6978261 L33.284878,51.1603261 L38.3234146,51.1603261 L33.284878,40.6228261 Z" id="XMLID_220_"></path>
                        <path d="M21.6809756,61.6978261 L38.3234146,61.6978261 L33.284878,51.1603261 L38.3234146,51.1603261 L33.284878,40.6228261 L38.3234146,40.6228261 L19.2380488,0.610869565 L19.2380488,73.3043478 C20.6121951,73.3043478 21.6809756,72.2353261 21.6809756,70.8608696 L21.6809756,61.6978261 Z" id="XMLID_219_"></path>
                    </g>
                    <g id="XMLID_212_" transform="translate(193.907317, 70.250000)" fill="#5D7132" fill-rule="nonzero">
                        <path d="M19.3907317,23.823913 L22.2917073,23.823913 L11.1458537,0.458152174 L0,23.823913 L2.90097561,23.823913 L0,29.9326087 L2.90097561,29.9326087 L0,36.0413043 L9.77170732,36.0413043 L9.77170732,41.386413 C9.77170732,42.15 10.382439,42.7608696 11.1458537,42.7608696 C11.9092683,42.7608696 12.52,42.15 12.52,41.386413 L12.52,36.0413043 L22.2917073,36.0413043 L19.3907317,29.9326087 L22.2917073,29.9326087 L19.3907317,23.823913 Z" id="XMLID_216_"></path>
                        <path d="M12.6726829,36.1940217 L22.4443902,36.1940217 L19.5434146,30.0853261 L22.4443902,30.0853261 L19.5434146,23.9766304 L22.4443902,23.9766304 L11.2985366,0.610869565 L11.2985366,43.0663043 C12.0619512,43.0663043 12.6726829,42.4554348 12.6726829,41.6918478 L12.6726829,36.1940217 Z" id="XMLID_215_"></path>
                    </g>
                    <g id="XMLID_209_" transform="translate(58.019512, 58.032609)" fill="#5D7132" fill-rule="nonzero">
                        <path d="M29.6204878,34.361413 L33.8956098,34.361413 L17.5585366,1.37445652 L1.22146341,34.361413 L5.49658537,34.361413 L1.22146341,43.0663043 L5.49658537,43.0663043 L1.22146341,51.7711957 L15.5736585,51.7711957 L15.5736585,59.2543478 C15.5736585,60.3233696 16.4897561,61.2396739 17.5585366,61.2396739 C18.6273171,61.2396739 19.5434146,60.3233696 19.5434146,59.2543478 L19.5434146,51.7711957 L33.8956098,51.7711957 L29.6204878,43.0663043 L33.8956098,43.0663043 L29.6204878,34.361413 Z" id="XMLID_211_"></path>
                        <path d="M19.5434146,51.7711957 L33.8956098,51.7711957 L29.6204878,43.0663043 L33.8956098,43.0663043 L29.6204878,34.361413 L33.8956098,34.361413 L17.5585366,1.37445652 L17.5585366,61.3923913 C18.6273171,61.3923913 19.5434146,60.476087 19.5434146,59.4070652 L19.5434146,51.7711957 Z" id="XMLID_210_"></path>
                    </g>
                    <ellipse id="XMLID_205_" stroke="#9ABD4B" stroke-width="4.4111" cx="159.859024" cy="120.188587" rx="116.802439" ry="116.828804"></ellipse>
                    <g id="XMLID_134_" transform="translate(21.375610, 164.934783)" fill="#676565" fill-rule="nonzero">
                        <polygon id="XMLID_135_" points="20.6121951 17.8679348 19.2380488 14.9663043 1.37414634 23.6711957 1.77635684e-15 20.9222826 17.8639024 12.2173913 16.4897561 9.31576087 19.3907317 7.94130435 23.5131707 16.4934783"></polygon>
                        <polygon id="XMLID_149_" points="29.162439 25.8092391 9.16097561 37.7211957 7.63414634 35.125 16.9478049 29.4744565 15.2682927 26.7255435 5.95463415 32.376087 4.42780488 29.7798913 24.4292683 17.8679348 25.9560976 20.4641304 18.1692683 25.0456522 19.8487805 27.7945652 27.6356098 23.2130435"></polygon>
                        <path d="M19.2380488,42.7608696 L17.4058537,40.3173913 L12.6726829,42.913587 L10.9931707,40.4701087 L31.9107317,29.7798913 L33.7429268,32.376087 L16.9478049,48.8695652 L15.1156098,46.2733696 L19.2380488,42.7608696 Z M21.6809756,40.3173913 L27.9409756,34.6668478 L20.6121951,38.7902174 L21.6809756,40.3173913 Z" id="XMLID_153_"></path>
                        <polygon id="XMLID_156_" points="44.8887805 45.6625 27.4829268 60.9342391 25.4980488 58.6434783 36.1858537 49.175 24.1239024 57.1163043 22.7497561 55.436413 32.2160976 44.5934783 32.2160976 44.5934783 21.5282927 54.0619565 19.5434146 51.7711957 36.9492683 36.4994565 39.697561 39.7065217 30.5365854 50.3967391 30.5365854 50.3967391 42.2931707 42.7608696"></polygon>
                        <polygon id="XMLID_180_" points="46.2629268 51.6184783 42.2931707 55.7418478 44.5834146 57.8798913 42.2931707 60.3233696 40.0029268 58.1853261 34.8117073 63.6831522 38.1707317 66.8902174 35.8804878 69.3336957 30.2312195 63.988587 46.2629268 47.1896739 51.7595122 52.3820652 49.4692683 54.8255435"></polygon>
                        <path d="M53.2863415,62.0032609 L53.8970732,61.2396739 C54.9658537,60.0179348 54.9658537,58.948913 54.355122,58.3380435 C53.7443902,57.8798913 52.8282927,58.0326087 52.064878,58.7961957 C51.4541463,59.5597826 50.9960976,60.3233696 50.9960976,61.5451087 L50.3853659,67.1956522 C50.08,69.486413 49.9273171,70.8608696 48.2478049,72.998913 C46.1102439,75.5951087 43.3619512,75.7478261 41.3770732,74.0679348 C39.3921951,72.5407609 39.0868293,69.7918478 41.2243902,67.1956522 L42.7512195,65.3630435 L45.1941463,67.3483696 L43.82,69.0282609 C42.9039024,70.0972826 42.9039024,71.013587 43.5146341,71.6244565 C44.1253659,72.0826087 45.0414634,71.9298913 45.957561,70.8608696 C46.7209756,69.9445652 47.0263415,69.0282609 47.1790244,67.8065217 L47.4843902,63.3777174 C47.7897561,60.3233696 47.7897561,59.4070652 49.7746341,56.8108696 C51.7595122,54.3673913 54.5078049,54.0619565 56.4926829,55.7418478 C58.477561,57.4217391 58.6302439,60.1706522 56.6453659,62.6141304 L55.5765854,63.8358696 L53.2863415,62.0032609 Z" id="XMLID_182_"></path>
                        <path d="M58.477561,86.1326087 L60.9204878,76.6641304 C60.615122,76.511413 60.1570732,76.2059783 60.0043902,76.2059783 L54.9658537,84.1472826 L52.3702439,82.4673913 L64.737561,62.9195652 L69.1653659,65.6684783 C71.6082927,67.1956522 71.3029268,70.5554348 69.3180488,73.6097826 C67.4858537,76.511413 65.3482927,77.7331522 63.5160976,77.8858696 L60.9204878,87.9652174 L58.477561,86.1326087 Z M61.9892683,73.1516304 L62.7526829,73.6097826 C64.4321951,74.6788043 65.0429268,74.6788043 66.875122,71.7771739 C67.9439024,70.25 68.4019512,68.8755435 67.3331707,68.1119565 L65.6536585,67.0429348 L61.9892683,73.1516304 Z" id="XMLID_199_"></path>
                        <polygon id="XMLID_203_" points="66.4170732 90.561413 63.6687805 89.0342391 74.8146341 68.7228261 77.5629268 70.25"></polygon>
                        <polygon id="XMLID_218_" points="75.5780488 95.1429348 72.5243902 93.7684783 78.7843902 71.1663043 81.8380488 72.5407609 76.6468293 89.0342391 76.6468293 89.0342391 85.9604878 74.3733696 89.0141463 75.7478261"></polygon>
                        <polygon id="XMLID_227_" points="92.0678049 80.3293478 90.0829268 85.6744565 92.9839024 86.7434783 91.915122 89.7978261 89.0141463 88.7288043 86.4185366 95.7538043 90.8463415 97.4336957 89.777561 100.488043 82.4487805 97.7391304 90.3882927 75.9005435 97.4117073 78.4967391 96.3429268 81.551087"></polygon>
                        <path d="M99.7019512,103.542391 L99.3965854,93.7684783 C98.9385366,93.6157609 98.6331707,93.4630435 98.4804878,93.4630435 L96.037561,102.47337 L93.1365854,101.709783 L99.2439024,79.4130435 L104.282439,80.7875 C107.183415,81.551087 107.794146,84.7581522 106.725366,88.4233696 C105.809268,91.7831522 104.129756,93.6157609 102.450244,94.2266304 L102.908293,104.611413 L99.7019512,103.542391 Z M99.3965854,90.1032609 L100.312683,90.4086957 C102.297561,91.0195652 102.908293,90.7141304 103.82439,87.5070652 C104.282439,85.6744565 104.435122,84.3 103.213659,83.8418478 L101.22878,83.3836957 L99.3965854,90.1032609 Z" id="XMLID_229_"></path>
                        <path d="M117.87122,101.709783 L114.970244,101.25163 L113.596098,106.444022 L110.695122,105.98587 L117.565854,83.536413 L120.619512,83.9945652 L120.772195,107.513043 L117.718537,107.054891 L117.87122,101.709783 Z M117.87122,98.35 L118.176585,89.9505435 L116.039024,98.0445652 L117.87122,98.35 Z" id="XMLID_232_"></path>
                        <polygon id="XMLID_235_" points="134.971707 85.3690217 133.444878 108.582065 130.39122 108.429348 128.253659 94.9902174 128.253659 94.9902174 127.337561 108.27663 124.283902 108.123913 125.810732 84.9108696 129.017073 85.063587 131.001951 98.0445652 131.001951 98.0445652 131.918049 85.2163043"></polygon>
                        <path d="M143.063902,91.9358696 L143.063902,90.1032609 C143.063902,89.3396739 142.453171,88.2706522 141.537073,88.2706522 C140.468293,88.2706522 140.010244,89.4923913 140.010244,90.2559783 L140.31561,103.695109 C140.31561,104.458696 140.773659,105.527717 141.995122,105.527717 C143.216585,105.527717 143.674634,104.458696 143.674634,102.47337 L143.521951,98.9608696 L141.842439,98.9608696 L141.842439,95.601087 L146.422927,95.4483696 L146.57561,102.626087 C146.57561,105.833152 145.354146,108.582065 142.147805,108.734783 C138.636098,108.734783 137.414634,105.98587 137.414634,103.695109 L137.109268,90.2559783 C137.109268,87.9652174 138.178049,85.063587 141.689756,84.9108696 C144.896098,84.9108696 146.270244,87.6597826 146.422927,89.9505435 L146.422927,91.7831522 L143.063902,91.9358696 Z" id="XMLID_237_"></path>
                        <polygon id="XMLID_239_" points="156.958049 104.153261 157.263415 107.513043 150.087317 108.27663 147.797073 85.2163043 150.850732 84.9108696 152.83561 104.76413"></polygon>
                        <polygon id="XMLID_241_" points="160.16439 86.8961957 161.080488 92.5467391 164.134146 92.088587 164.744878 95.2956522 161.69122 95.7538043 162.912683 103.236957 167.645854 102.47337 168.256585 105.680435 160.469756 107.054891 156.652683 84.1472826 163.981463 82.9255435 164.592195 86.1326087"></polygon>
                        <path d="M178.333659,103.236957 L173.142439,94.8375 C172.68439,94.9902174 172.226341,94.9902174 172.226341,95.1429348 L174.516585,104.153261 L171.462927,104.916848 L165.813659,82.4673913 L170.852195,81.2456522 C173.753171,80.4820652 175.890732,82.9255435 176.806829,86.5907609 C177.722927,89.9505435 177.112195,92.3940217 175.890732,93.6157609 L181.54,102.47337 L178.333659,103.236957 Z M171.310244,91.7831522 L172.226341,91.4777174 C174.21122,91.0195652 174.669268,90.561413 173.753171,87.2016304 C173.295122,85.3690217 172.68439,84.1472826 171.462927,84.3 L169.478049,84.7581522 L171.310244,91.7831522 Z" id="XMLID_243_"></path>
                        <path d="M184.13561,83.9945652 L183.830244,83.0782609 C183.372195,81.551087 182.456098,80.9402174 181.692683,81.0929348 C180.929268,81.3983696 180.623902,82.3146739 180.929268,83.2309783 C181.234634,84.1472826 181.692683,84.9108696 182.60878,85.6744565 L187.036585,89.1869565 C188.86878,90.561413 189.937561,91.4777174 190.853659,94.073913 C191.922439,97.2809783 190.548293,99.7244565 188.258049,100.488043 C185.815122,101.25163 183.372195,100.182609 182.303415,96.9755435 L181.54,94.6847826 L184.440976,93.6157609 L185.20439,95.601087 C185.662439,96.9755435 186.425854,97.4336957 187.189268,97.1282609 C187.952683,96.8228261 188.258049,95.9065217 187.8,94.6847826 C187.341951,93.4630435 186.73122,92.6994565 185.815122,92.088587 L182.150732,89.6451087 C179.707805,87.6597826 178.791707,87.2016304 177.87561,84.3 C176.806829,81.3983696 178.028293,78.8021739 180.47122,77.8858696 C182.914146,76.9695652 185.357073,78.3440217 186.425854,81.2456522 L186.883902,82.7728261 L184.13561,83.9945652 Z" id="XMLID_246_"></path>
                        <path d="M203.98439,87.8125 L201.236098,89.1869565 L203.068293,94.3793478 L200.472683,95.601087 L193.601951,73.1516304 L196.350244,71.7771739 L209.633659,91.0195652 L206.885366,92.3940217 L203.98439,87.8125 Z M202.152195,84.9108696 L197.72439,77.8858696 L200.472683,85.8271739 L202.152195,84.9108696 Z" id="XMLID_248_"></path>
                        <path d="M208.870244,72.2353261 L208.412195,71.4717391 C207.64878,70.0972826 206.58,69.6391304 205.969268,69.9445652 C205.358537,70.4027174 205.205854,71.3190217 205.663902,72.2353261 C206.121951,73.1516304 206.732683,73.6097826 207.801463,74.2206522 L212.84,76.6641304 C214.824878,77.7331522 216.199024,78.3440217 217.573171,80.7875 C219.252683,83.6891304 218.336585,86.2853261 216.199024,87.6597826 C214.061463,88.8815217 211.313171,88.2706522 209.633659,85.5217391 L208.412195,83.3836957 L211.160488,81.8565217 L212.229268,83.6891304 C212.992683,84.9108696 213.756098,85.2163043 214.519512,84.7581522 C215.130244,84.3 215.282927,83.3836957 214.672195,82.1619565 C214.061463,81.0929348 213.298049,80.4820652 212.229268,80.023913 L208.259512,78.3440217 C205.51122,76.9695652 204.595122,76.6641304 202.91561,73.9152174 C201.38878,71.1663043 201.846829,68.5701087 204.137073,67.1956522 C206.427317,65.8211957 209.022927,66.7375 210.702439,69.3336957 L211.465854,70.7081522 L208.870244,72.2353261 Z" id="XMLID_251_"></path>
                        <path d="M217.878537,66.2793478 L217.267805,65.5157609 C216.351707,64.1413043 215.282927,63.8358696 214.672195,64.2940217 C214.061463,64.7521739 213.90878,65.6684783 214.519512,66.5847826 C215.130244,67.3483696 215.588293,67.9592391 216.809756,68.4173913 L222.153659,70.5554348 C224.29122,71.3190217 225.665366,71.9298913 227.192195,74.2206522 C229.177073,76.9695652 228.413659,79.7184783 226.42878,81.0929348 C224.443902,82.4673913 221.69561,82.1619565 219.710732,79.4130435 L218.336585,77.4277174 L220.932195,75.5951087 L222.153659,77.4277174 C222.917073,78.6494565 223.833171,78.8021739 224.443902,78.3440217 C225.054634,77.8858696 225.207317,76.9695652 224.29122,75.7478261 C223.527805,74.6788043 222.76439,74.2206522 221.69561,73.7625 L217.573171,72.3880435 C214.672195,71.1663043 213.756098,71.013587 211.923902,68.4173913 C210.091707,65.8211957 210.549756,63.0722826 212.687317,61.5451087 C214.824878,60.0179348 217.573171,60.6288043 219.405366,63.225 L220.321463,64.5994565 L217.878537,66.2793478 Z" id="XMLID_253_"></path>
                        <path d="M228.260976,56.0472826 L236.81122,66.2793478 C238.338049,68.1119565 239.101463,71.1663043 236.658537,73.1516304 C234.062927,75.2896739 231.314634,73.9152174 229.787805,72.0826087 L221.237561,61.8505435 C219.710732,60.0179348 218.794634,57.1163043 221.542927,54.9782609 C223.833171,52.9929348 226.734146,54.2146739 228.260976,56.0472826 Z M225.818049,58.0326087 C225.36,57.5744565 224.138537,56.8108696 223.527805,57.4217391 C222.76439,58.1853261 223.222439,59.4070652 223.527805,59.8652174 L232.078049,70.0972826 C232.536098,70.7081522 233.757561,71.3190217 234.520976,70.7081522 C235.131707,70.0972826 234.826341,68.8755435 234.368293,68.2646739 L225.818049,58.0326087 Z" id="XMLID_255_"></path>
                        <path d="M235.437073,51.6184783 L234.21561,50.2440217 C233.757561,49.7858696 232.536098,49.3277174 231.925366,49.938587 C231.161951,50.7021739 231.62,51.923913 232.078049,52.3820652 L241.54439,61.8505435 C242.002439,62.3086957 243.223902,62.9195652 243.987317,62.1559783 C244.598049,61.5451087 244.14,60.3233696 243.681951,59.8652174 L242.460488,58.4907609 L244.750732,56.3527174 L245.972195,57.7271739 C247.651707,59.4070652 248.567805,62.461413 246.430244,64.5994565 C243.987317,67.0429348 241.086341,65.8211957 239.406829,64.2940217 L229.940488,54.6728261 C228.260976,52.9929348 227.192195,50.0913043 229.635122,47.6478261 C231.925366,45.5097826 234.826341,46.426087 236.505854,48.1059783 L237.727317,49.4804348 L235.437073,51.6184783 Z" id="XMLID_259_"></path>
                        <polygon id="XMLID_261_" points="253.453659 56.3527174 251.316098 58.6434783 234.062927 43.2190217 236.200488 40.9282609"></polygon>
                        <path d="M255.438537,45.6625 L253.606341,47.9532609 L257.423415,51.7711957 L255.59122,54.0619565 L239.559512,36.9576087 L241.54439,34.5141304 L262.003902,46.1206522 L260.019024,48.5641304 L255.438537,45.6625 Z M252.384878,43.9826087 L245.20878,39.5538043 L251.163415,45.5097826 L252.384878,43.9826087 Z" id="XMLID_263_"></path>
                        <polygon id="XMLID_266_" points="251.010732 26.7255435 249.178537 29.3217391 265.51561 40.6228261 263.683415 43.2190217 247.346341 31.9179348 245.514146 34.5141304 242.765854 32.6815217 248.109756 24.8929348"></polygon>
                        <polygon id="XMLID_268_" points="270.554146 32.6815217 269.027317 35.2777174 249.178537 23.3657609 250.705366 20.7695652"></polygon>
                        <path d="M260.32439,13.1336957 L272.233659,19.2423913 C274.37122,20.311413 276.203415,22.9076087 274.829268,25.6565217 C273.302439,28.7108696 270.096098,28.4054348 268.11122,27.336413 L256.201951,21.2277174 C254.06439,20.1586957 252.232195,17.7152174 253.759024,14.6608696 C255.133171,12.0646739 258.186829,12.0646739 260.32439,13.1336957 Z M258.950244,15.8826087 C258.339512,15.5771739 256.965366,15.4244565 256.507317,16.1880435 C256.049268,17.1043478 256.965366,18.1733696 257.423415,18.4788043 L269.332683,24.5875 C269.943415,24.8929348 271.317561,25.0456522 271.77561,24.1293478 C272.233659,23.3657609 271.317561,22.2967391 270.706829,21.9913043 L258.950244,15.8826087 Z" id="XMLID_270_"></path>
                        <polygon id="XMLID_273_" points="260.32439 0.610869565 281.7 9.46847826 280.478537 12.3701087 267.042439 10.0793478 267.042439 10.0793478 279.257073 15.1190217 278.03561 18.0206522 256.66 9.16304348 257.881463 6.10869565 270.859512 8.39945652 270.859512 8.39945652 258.950244 3.5125"></polygon>
                    </g>
                    <g id="XMLID_56_" transform="translate(108.404878, 192.423913)" fill="#676565" fill-rule="nonzero">
                        <g id="XMLID_491_">
                            <path d="M6.41268293,12.0646739 L4.12243902,12.0646739 L3.66439024,15.2717391 L1.37414634,15.2717391 L4.12243902,1.8326087 L6.56536585,1.8326087 L9.31365854,15.2717391 L6.87073171,15.2717391 L6.41268293,12.0646739 Z M5.95463415,10.0793478 L5.19121951,5.1923913 L4.42780488,10.0793478 L5.95463415,10.0793478 Z" id="XMLID_515_"></path>
                            <polygon id="XMLID_513_" points="19.0853659 1.8326087 19.0853659 15.2717391 16.642439 15.2717391 14.1995122 7.48315217 14.1995122 7.48315217 14.1995122 15.2717391 11.7565854 15.2717391 11.7565854 1.8326087 14.3521951 1.8326087 16.642439 9.31576087 16.642439 9.31576087 16.642439 1.8326087 19.0853659 1.8326087"></polygon>
                            <path d="M26.7195122,5.65054348 L26.7195122,4.58152174 C26.7195122,4.12336957 26.2614634,3.5125 25.6507317,3.5125 C24.7346341,3.5125 24.4292683,4.27608696 24.4292683,4.58152174 L24.4292683,12.3701087 C24.4292683,12.8282609 24.7346341,13.4391304 25.6507317,13.4391304 C26.5668293,13.4391304 27.024878,12.8282609 27.024878,11.7592391 L27.024878,9.77391304 L25.6507317,9.77391304 L25.6507317,7.78858696 L29.162439,7.78858696 L29.162439,11.9119565 C29.162439,13.7445652 28.0936585,15.4244565 25.6507317,15.4244565 C22.902439,15.4244565 21.9863415,13.7445652 21.9863415,12.3701087 L21.9863415,4.58152174 C21.9863415,3.20706522 22.902439,1.52717391 25.6507317,1.52717391 C28.0936585,1.52717391 29.162439,3.20706522 29.162439,4.58152174 L29.162439,5.65054348 L26.7195122,5.65054348 Z" id="XMLID_511_"></path>
                            <polygon id="XMLID_509_" points="37.4073171 13.286413 37.4073171 15.2717391 31.9107317 15.2717391 31.9107317 1.8326087 34.3536585 1.8326087 34.3536585 13.4391304 37.4073171 13.4391304"></polygon>
                            <polygon id="XMLID_507_" points="42.4458537 3.66521739 42.4458537 7.025 44.8887805 7.025 44.8887805 9.01032609 42.4458537 9.01032609 42.4458537 13.4391304 46.1102439 13.4391304 46.1102439 15.4244565 40.0029268 15.4244565 40.0029268 1.98532609 45.804878 1.98532609 45.804878 3.97065217 42.4458537 3.97065217"></polygon>
                            <path d="M54.202439,15.2717391 L51.9121951,9.77391304 C51.6068293,9.77391304 51.3014634,9.77391304 51.1487805,9.77391304 L51.1487805,15.2717391 L48.7058537,15.2717391 L48.7058537,1.8326087 L52.6756098,1.8326087 C54.9658537,1.8326087 56.0346341,3.5125 56.0346341,5.65054348 C56.0346341,7.63586957 55.1185366,9.01032609 54.0497561,9.46847826 L56.6453659,15.2717391 L54.202439,15.2717391 Z M51.1487805,7.78858696 L51.9121951,7.78858696 C53.4390244,7.78858696 53.8970732,7.63586957 53.8970732,5.65054348 C53.8970732,4.58152174 53.5917073,3.66521739 52.6756098,3.66521739 L51.1487805,3.66521739 L51.1487805,7.78858696 Z" id="XMLID_504_"></path>
                            <path d="M63.3634146,5.49782609 L63.3634146,4.88695652 C63.3634146,3.97065217 62.9053659,3.35978261 62.2946341,3.35978261 C61.6839024,3.35978261 61.2258537,3.81793478 61.2258537,4.42880435 C61.2258537,5.03967391 61.3785366,5.49782609 61.8365854,6.10869565 L64.2795122,8.8576087 C65.1956098,9.92663043 65.8063415,10.6902174 65.8063415,12.2173913 C65.8063415,14.2027174 64.1268293,15.2717391 62.2946341,15.2717391 C60.3097561,15.2717391 58.7829268,14.2027174 58.7829268,12.2173913 L58.7829268,10.8429348 L61.2258537,10.8429348 L61.2258537,12.0646739 C61.2258537,12.8282609 61.6839024,13.286413 62.2946341,13.286413 C62.9053659,13.286413 63.3634146,12.8282609 63.3634146,12.0646739 C63.3634146,11.301087 63.0580488,10.8429348 62.6,10.2320652 L60.615122,8.24673913 C59.3936585,6.71956522 58.7829268,6.26141304 58.7829268,4.42880435 C58.7829268,2.59619565 60.3097561,1.37445652 62.2946341,1.37445652 C64.2795122,1.37445652 65.8063415,2.59619565 65.8063415,4.42880435 L65.8063415,5.3451087 L63.3634146,5.3451087 L63.3634146,5.49782609 Z" id="XMLID_502_"></path>
                            <polygon id="XMLID_500_" points="68.5546341 12.8282609 70.997561 12.8282609 70.997561 15.2717391 68.5546341 15.2717391"></polygon>
                            <path d="M80.9219512,4.58152174 L80.9219512,12.3701087 C80.9219512,13.7445652 79.8531707,15.4244565 77.4102439,15.4244565 C74.8146341,15.4244565 73.7458537,13.7445652 73.7458537,12.3701087 L73.7458537,4.58152174 C73.7458537,3.20706522 74.6619512,1.52717391 77.4102439,1.52717391 C79.8531707,1.52717391 80.9219512,3.20706522 80.9219512,4.58152174 Z M78.4790244,4.58152174 C78.4790244,4.12336957 78.0209756,3.5125 77.4102439,3.5125 C76.4941463,3.5125 76.1887805,4.27608696 76.1887805,4.58152174 L76.1887805,12.3701087 C76.1887805,12.8282609 76.4941463,13.5918478 77.4102439,13.5918478 C78.1736585,13.5918478 78.4790244,12.8282609 78.4790244,12.3701087 L78.4790244,4.58152174 Z" id="XMLID_497_"></path>
                            <path d="M89.1668293,15.2717391 L86.8765854,9.77391304 C86.5712195,9.77391304 86.2658537,9.77391304 86.1131707,9.77391304 L86.1131707,15.2717391 L83.6702439,15.2717391 L83.6702439,1.8326087 L87.64,1.8326087 C89.9302439,1.8326087 90.9990244,3.5125 90.9990244,5.65054348 C90.9990244,7.63586957 90.0829268,9.01032609 89.0141463,9.46847826 L91.6097561,15.2717391 L89.1668293,15.2717391 Z M86.1131707,7.78858696 L86.8765854,7.78858696 C88.4034146,7.78858696 88.8614634,7.63586957 88.8614634,5.65054348 C88.8614634,4.58152174 88.5560976,3.66521739 87.64,3.66521739 L86.1131707,3.66521739 L86.1131707,7.78858696 Z" id="XMLID_494_"></path>
                            <path d="M98.6331707,5.65054348 L98.6331707,4.58152174 C98.6331707,4.12336957 98.175122,3.5125 97.5643902,3.5125 C96.6482927,3.5125 96.3429268,4.27608696 96.3429268,4.58152174 L96.3429268,12.3701087 C96.3429268,12.8282609 96.6482927,13.4391304 97.5643902,13.4391304 C98.4804878,13.4391304 98.9385366,12.8282609 98.9385366,11.7592391 L98.9385366,9.77391304 L97.5643902,9.77391304 L97.5643902,7.78858696 L101.076098,7.78858696 L101.076098,11.9119565 C101.076098,13.7445652 100.007317,15.4244565 97.5643902,15.4244565 C94.8160976,15.4244565 93.9,13.7445652 93.9,12.3701087 L93.9,4.58152174 C93.9,3.20706522 94.8160976,1.52717391 97.5643902,1.52717391 C100.007317,1.52717391 101.076098,3.20706522 101.076098,4.58152174 L101.076098,5.65054348 L98.6331707,5.65054348 Z" id="XMLID_492_"></path>
                        </g>
                    </g>
                    <g id="XMLID_1_" transform="translate(120.619512, 44.288043)" fill="#676565" fill-rule="nonzero">
                        <g id="XMLID_427_">
                            <polygon id="XMLID_446_" points="2.59560976 3.5125 2.59560976 7.17771739 5.34390244 7.17771739 5.34390244 9.31576087 2.59560976 9.31576087 2.59560976 14.2027174 6.71804878 14.2027174 6.71804878 16.3407609 0 16.3407609 0 1.37445652 6.41268293 1.37445652 6.41268293 3.5125"></polygon>
                            <path d="M14.504878,5.49782609 L14.504878,4.88695652 C14.504878,3.81793478 13.8941463,3.20706522 13.2834146,3.20706522 C12.6726829,3.20706522 12.0619512,3.66521739 12.0619512,4.42880435 C12.0619512,5.03967391 12.2146341,5.49782609 12.8253659,6.26141304 L15.5736585,9.31576087 C16.642439,10.5375 17.2531707,11.301087 17.2531707,13.1336957 C17.2531707,15.2717391 15.4209756,16.4934783 13.2834146,16.4934783 C11.1458537,16.4934783 9.46634146,15.2717391 9.46634146,13.1336957 L9.46634146,11.6065217 L12.2146341,11.6065217 L12.2146341,12.9809783 C12.2146341,13.8972826 12.6726829,14.3554348 13.4360976,14.3554348 C14.0468293,14.3554348 14.657561,13.8972826 14.657561,12.9809783 C14.657561,12.2173913 14.3521951,11.6065217 13.7414634,10.9956522 L11.4512195,8.7048913 C10.0770732,7.025 9.46634146,6.56684783 9.46634146,4.58152174 C9.46634146,2.59619565 11.1458537,1.22173913 13.4360976,1.22173913 C15.7263415,1.22173913 17.2531707,2.59619565 17.2531707,4.58152174 L17.2531707,5.65054348 L14.504878,5.65054348 L14.504878,5.49782609 Z" id="XMLID_444_"></path>
                            <polygon id="XMLID_442_" points="28.2463415 3.35978261 25.4980488 3.35978261 25.4980488 16.1880435 22.7497561 16.1880435 22.7497561 3.35978261 20.0014634 3.35978261 20.0014634 1.22173913 28.2463415 1.22173913 28.2463415 3.35978261"></polygon>
                            <polygon id="XMLID_440_" points="29.7731707 13.5918478 32.5214634 13.5918478 32.5214634 16.3407609 29.7731707 16.3407609"></polygon>
                            <polygon id="XMLID_438_" points="41.5297561 1.37445652 44.2780488 1.37445652 44.2780488 16.3407609 41.5297561 16.3407609 41.5297561 3.5125 40.3082927 3.5125 40.3082927 1.98532609"></polygon>
                            <path d="M47.3317073,7.17771739 C47.3317073,7.025 47.3317073,5.3451087 47.3317073,5.03967391 C47.3317073,2.74891304 48.8585366,1.06902174 51.6068293,1.06902174 C54.355122,1.06902174 55.5765854,2.90163043 55.5765854,4.42880435 C55.5765854,4.42880435 55.5765854,11.6065217 55.5765854,11.9119565 C55.5765854,14.3554348 53.8970732,16.3407609 51.4541463,16.3407609 C48.8585366,16.3407609 47.7897561,14.5081522 47.7897561,12.9809783 L47.7897561,11.7592391 L50.3853659,11.7592391 L50.3853659,12.9809783 C50.3853659,13.5918478 50.8434146,14.2027174 51.6068293,14.2027174 C52.6756098,14.2027174 52.9809756,13.1336957 52.9809756,11.9119565 L52.9809756,9.46847826 C52.6756098,9.92663043 52.064878,10.2320652 51.1487805,10.2320652 C48.5531707,10.5375 47.3317073,8.8576087 47.3317073,7.17771739 Z M50.08,7.17771739 C50.08,7.94130435 50.6907317,8.39945652 51.4541463,8.39945652 C52.3702439,8.39945652 52.8282927,7.94130435 52.8282927,7.63586957 L52.8282927,4.58152174 C52.8282927,4.12336957 52.3702439,3.35978261 51.6068293,3.35978261 C50.5380488,3.35978261 50.08,3.97065217 50.08,5.1923913 C50.08,5.1923913 50.08,7.025 50.08,7.17771739 Z" id="XMLID_435_"></path>
                            <path d="M67.1804878,12.0646739 C67.1804878,14.5081522 65.5009756,16.4934783 62.9053659,16.4934783 C60.3097561,16.4934783 58.477561,14.5081522 58.477561,12.0646739 C58.477561,9.92663043 59.5463415,8.8576087 60.9204878,8.24673913 C60.0043902,7.78858696 58.9356098,6.41413043 58.9356098,4.88695652 C58.9356098,2.59619565 60.3097561,1.06902174 62.7526829,1.06902174 C65.1956098,1.06902174 66.5697561,2.44347826 66.5697561,4.88695652 C66.5697561,6.41413043 65.6536585,7.78858696 64.584878,8.24673913 C66.1117073,8.8576087 67.1804878,9.92663043 67.1804878,12.0646739 Z M64.4321951,12.0646739 C64.4321951,10.6902174 64.1268293,9.62119565 62.9053659,9.31576087 C61.6839024,9.62119565 61.2258537,10.5375 61.2258537,12.0646739 C61.2258537,13.5918478 61.8365854,14.3554348 63.0580488,14.3554348 C63.9741463,14.3554348 64.4321951,13.1336957 64.4321951,12.0646739 Z M61.5312195,5.03967391 C61.5312195,5.80326087 61.8365854,6.56684783 62.9053659,6.87228261 C63.8214634,6.56684783 64.1268293,5.80326087 64.1268293,5.03967391 C64.1268293,3.97065217 63.6687805,3.20706522 62.9053659,3.20706522 C62.1419512,3.20706522 61.5312195,3.97065217 61.5312195,5.03967391 Z" id="XMLID_431_"></path>
                            <path d="M78.3263415,10.3847826 C78.3263415,10.5375 78.3263415,12.2173913 78.3263415,12.5228261 C78.3263415,14.813587 76.7995122,16.4934783 74.0512195,16.4934783 C71.3029268,16.4934783 70.0814634,14.6608696 70.0814634,13.1336957 C70.0814634,13.1336957 70.0814634,5.95597826 70.0814634,5.65054348 C70.0814634,3.20706522 71.6082927,1.22173913 74.0512195,1.22173913 C76.6468293,1.22173913 77.8682927,3.05434783 77.8682927,4.58152174 L77.8682927,5.65054348 L75.2726829,5.65054348 L75.2726829,4.58152174 C75.2726829,3.97065217 74.8146341,3.35978261 74.0512195,3.35978261 C72.982439,3.35978261 72.6770732,4.58152174 72.6770732,5.65054348 L72.6770732,7.94130435 C72.982439,7.48315217 73.5931707,7.17771739 74.5092683,7.17771739 C77.257561,7.17771739 78.3263415,8.7048913 78.3263415,10.3847826 Z M75.5780488,10.3847826 C75.5780488,9.62119565 74.9673171,9.16304348 74.2039024,9.16304348 C73.4404878,9.16304348 72.8297561,9.62119565 72.8297561,9.92663043 L72.8297561,12.9809783 C72.8297561,13.4391304 73.2878049,14.2027174 74.0512195,14.2027174 C75.12,14.2027174 75.5780488,13.5918478 75.5780488,12.3701087 C75.5780488,12.3701087 75.5780488,10.6902174 75.5780488,10.3847826 Z" id="XMLID_428_"></path>
                        </g>
                    </g>
                    <g id="XMLID_194_" transform="translate(152.682927, 15.271739)" fill-rule="nonzero">
                        <ellipse id="XMLID_197_" fill="#D8AE58" cx="7.32878049" cy="6.26141304" rx="5.95463415" ry="5.95597826"></ellipse>
                        <ellipse id="XMLID_195_" fill="#FFFFFF" transform="translate(4.616765, 2.890116) rotate(-39.522410) translate(-4.616765, -2.890116) " cx="4.61676527" cy="2.89011554" rx="1.22150184" ry="1"></ellipse>
                    </g>
                    <g id="XMLID_191_" transform="translate(119.092683, 22.907609)" fill-rule="nonzero">
                        <ellipse id="XMLID_193_" fill="#D8AE58" cx="7.02341463" cy="6.56684783" rx="5.95463415" ry="5.95597826"></ellipse>
                        <ellipse id="XMLID_192_" fill="#FFFFFF" transform="translate(4.334607, 3.228018) rotate(-39.522410) translate(-4.334607, -3.228018) " cx="4.33460722" cy="3.22801804" rx="1.22150184" ry="1"></ellipse>
                    </g>
                    <g id="XMLID_188_" transform="translate(186.273171, 22.907609)" fill-rule="nonzero">
                        <ellipse id="XMLID_190_" fill="#D8AE58" cx="6.41268293" cy="6.56684783" rx="5.95463415" ry="5.95597826"></ellipse>
                        <ellipse id="XMLID_189_" fill="#FFFFFF" transform="translate(3.713554, 3.193443) rotate(-39.522410) translate(-3.713554, -3.193443) " cx="3.71355415" cy="3.19344283" rx="1.22150184" ry="1"></ellipse>
                    </g>
                    <ellipse id="XMLID_187_" fill="#FFFFFF" fill-rule="nonzero" cx="126.116098" cy="31.4597826" rx="3.05365854" ry="1.52717391"></ellipse>
                    <ellipse id="XMLID_186_" fill="#FFFFFF" fill-rule="nonzero" cx="160.011707" cy="23.6711957" rx="3.05365854" ry="1.52717391"></ellipse>
                    <ellipse id="XMLID_185_" fill="#FFFFFF" fill-rule="nonzero" cx="192.685854" cy="31.4597826" rx="3.05365854" ry="1.52717391"></ellipse>
                    <path d="M178.486341,106.902174 C178.486341,106.902174 174.21122,104.611413 171.920976,104.458696 C171.920976,104.458696 154.973171,88.2706522 151.003415,86.1326087 C151.003415,86.1326087 140.773659,102.931522 136.193171,104.305978 C136.193171,104.305978 134.971707,105.833152 140.31561,106.291304 C140.31561,106.291304 145.354146,106.291304 145.812195,106.902174 C145.812195,106.902174 147.64439,107.513043 147.491707,108.582065" id="XMLID_40_" stroke="#FFFFFF" stroke-width="6" fill="#FFFFFF" fill-rule="nonzero"></path>
                    <path d="M105.809268,110.720109 C105.809268,110.720109 98.175122,105.98587 86.2658537,105.375 C86.2658537,105.375 82.7541463,106.138587 79.8531707,111.941848 C79.8531707,111.941848 79.8531707,113.01087 81.6853659,113.927174" id="XMLID_37_" stroke="#FFFFFF" stroke-width="6" fill="#FFFFFF" fill-rule="nonzero"></path>
                    <path d="M74.8146341,138.514674 C72.5243902,138.209239 54.6604878,145.692391 54.6604878,145.692391 C18.6273171,168.294565 4.5804878,164.934783 4.5804878,164.934783 C4.5804878,157.298913 18.1692683,135.613043 18.1692683,135.613043 C25.3453659,126.755435 21.0702439,120.952174 21.0702439,120.952174 C5.19121951,88.1179348 7.17609756,87.8125 7.17609756,87.8125 C16.0317073,87.6597826 49.7746341,103.236957 49.7746341,103.236957 C55.5765854,106.444022 65.8063415,110.414674 65.8063415,110.414674 L73.5931707,113.469022 C75.8834146,114.690761 93.7473171,114.232609 93.7473171,114.232609 C129.780488,103.847826 237.421951,104.611413 237.421951,104.611413 L249.33122,105.527717 C249.33122,105.527717 295.746829,111.178261 302.922927,123.701087 C302.922927,123.701087 291.929756,129.504348 285.36439,135.613043 C285.36439,135.613043 294.678049,134.544022 296.81561,134.08587 L304.907805,133.475 C304.907805,133.475 305.518537,134.08587 293.15122,143.096196 C293.15122,143.096196 284.753659,147.372283 274.065854,150.42663 L262.92,152.870109 C253.759024,155.16087 245.056098,159.589674 237.269268,161.116848 C237.269268,161.116848 214.824878,165.69837 177.722927,163.102174 C140.468293,160.353261 152.224878,158.826087 123.062439,151.64837 C93.9,144.470652 93.1365854,141.416304 74.8146341,138.514674 Z" id="XMLID_11_" stroke="#FFFFFF" stroke-width="6" fill="#FFFFFF" fill-rule="nonzero"></path>
                    <path d="M177.570244,153.328261 C177.570244,153.328261 172.073659,176.541304 161.843902,179.901087 C161.843902,179.901087 157.263415,175.319565 154.057073,167.072826 C152.988293,164.171196 152.072195,160.96413 151.461463,157.298913 C151.461463,157.298913 151.919512,153.633696 154.973171,153.328261 C154.973171,153.328261 159.859024,155.008152 162.149268,153.328261" id="XMLID_12_" stroke="#FFFFFF" stroke-width="6" fill="#FFFFFF" fill-rule="nonzero"></path>
                    <path d="M116.802439,148.288587 C116.802439,148.288587 110.695122,157.909783 101.839512,163.713043 C101.839512,163.713043 97.5643902,168.294565 95.5795122,167.836413 C94.5107317,167.530978 95.1214634,164.47663 95.4268293,160.353261 C95.4268293,160.353261 92.9839024,152.411957 87.1819512,147.066848 C87.1819512,147.066848 84.4336585,144.776087 87.1819512,143.554348 C87.1819512,143.554348 87.7926829,143.707065 94.8160976,142.027174" id="XMLID_5_" stroke="#FFFFFF" stroke-width="6" fill="#FFFFFF" fill-rule="nonzero"></path>
                    <polygon id="XMLID_196_" points="146.422927 197.921739 158.179512 197.921739 158.179512 197.921739"></polygon>
                    <g id="XMLID_294_"></g>
                    <g id="XMLID_114_"></g>
                    <g id="XMLID_173_" transform="translate(10.687805, 97.739130)" fill="#666666" fill-rule="nonzero">
                        <polygon id="XMLID_176_" points="1.52682927 0.916304348 34.2009756 13.4391304 0.610731707 3.81793478"></polygon>
                    </g>
                    <g id="XMLID_170_" transform="translate(18.321951, 113.010870)" fill="#666666" fill-rule="nonzero">
                        <polygon id="XMLID_316_" points="0.45804878 1.06902174 18.0165854 4.58152174 0.152682927 4.12336957"></polygon>
                    </g>
                    <g id="XMLID_167_" transform="translate(19.848780, 128.282609)" fill="#666666" fill-rule="nonzero">
                        <polygon id="XMLID_174_" points="0.610731707 1.8326087 16.4897561 0 1.37414634 4.88695652"></polygon>
                    </g>
                    <g id="XMLID_164_" transform="translate(15.268293, 134.391304)" fill="#666666" fill-rule="nonzero">
                        <polygon id="XMLID_171_" points="0.305365854 4.42880435 26.5668293 0.152717391 1.06878049 7.33043478"></polygon>
                    </g>
                    <g id="XMLID_161_" transform="translate(9.160976, 137.445652)" fill="#666666" fill-rule="nonzero">
                        <polygon id="XMLID_168_" points="0.45804878 10.9956522 34.2009756 1.22173913 1.37414634 13.8972826"></polygon>
                    </g>
                    <g id="XMLID_158_" transform="translate(4.580488, 145.081522)" fill="#666666" fill-rule="nonzero">
                        <polygon id="XMLID_165_" points="0.305365854 11.7592391 38.4760976 0 1.37414634 14.6608696"></polygon>
                    </g>
                    <path d="M283.837561,120.494022 C283.837561,119.883152 283.532195,119.272283 282.921463,119.272283 C282.76878,119.272283 282.158049,118.966848 281.852683,118.966848 C281.394634,118.81413 280.783902,118.81413 280.325854,118.966848 C280.020488,118.966848 278.799024,119.425 278.646341,119.577717 C277.730244,120.03587 277.730244,120.188587 277.119512,121.104891 C276.814146,121.715761 276.966829,122.9375 277.577561,123.242935 C278.951707,123.853804 279.715122,124.922826 281.241951,124.617391 C281.7,124.617391 282.310732,124.464674 282.616098,124.006522 C283.074146,123.54837 283.226829,123.090217 283.379512,122.632065 C283.532195,122.173913 283.532195,122.173913 283.684878,121.715761" id="XMLID_157_" fill="#666666" fill-rule="nonzero"></path>
                    <path d="M65.9590244,140.347283 C65.9590244,140.347283 72.982439,130.726087 134.513659,155.313587 C134.513659,155.313587 133.292195,155.16087 151.461463,160.353261" id="XMLID_22_" stroke="#666666" stroke-width="2" stroke-linecap="round" stroke-linejoin="round"></path>
                    <path d="M174.669268,162.796739 C183.219512,163.102174 200.014634,163.713043 211.77122,163.560326 C211.77122,163.560326 214.214146,163.560326 218.183902,163.407609" id="XMLID_9_" stroke="#666666" stroke-width="2"></path>
                    <g id="XMLID_20_" transform="translate(209.175610, 145.081522)" fill="#666666" fill-rule="nonzero">
                        <path d="M32.5214634,1.8326087 C30.3839024,1.6798913 28.0936585,1.98532609 26.1087805,2.29076087 C25.6507317,2.44347826 25.04,2.59619565 24.5819512,2.59619565 C24.1239024,2.74891304 23.5131707,2.90163043 23.055122,3.05434783 C22.5970732,3.20706522 21.9863415,3.35978261 21.5282927,3.66521739 C21.0702439,3.81793478 20.6121951,4.12336957 20.1541463,4.42880435 C19.6960976,4.73423913 19.2380488,4.88695652 18.78,5.1923913 L17.4058537,6.10869565 C16.9478049,6.41413043 16.642439,6.87228261 16.1843902,7.17771739 C15.7263415,7.48315217 15.4209756,7.94130435 15.1156098,8.24673913 C14.8102439,8.7048913 14.3521951,9.01032609 14.0468293,9.46847826 L13.1307317,10.8429348 C12.52,11.7592391 12.2146341,12.6755435 11.6039024,13.5918478 L11.6039024,13.4391304 C11.2985366,14.813587 10.8404878,16.0353261 10.382439,17.2570652 C9.92439024,18.4788043 9.31365854,19.7005435 8.70292683,20.7695652 C8.09219512,21.838587 7.17609756,23.0603261 6.26,23.9766304 C5.80195122,24.4347826 5.34390244,24.8929348 4.73317073,25.351087 C4.42780488,25.5038043 4.12243902,25.8092391 3.81707317,25.9619565 L2.90097561,26.4201087 L1.98487805,24.1293478 C6.26,22.7548913 10.535122,21.2277174 14.8102439,19.7005435 C16.9478049,18.9369565 19.0853659,18.1733696 21.0702439,17.2570652 C22.1390244,16.798913 23.055122,16.4934783 24.1239024,16.0353261 C25.04,15.5771739 26.1087805,15.1190217 27.024878,14.5081522 L26.8721951,14.6608696 C28.5517073,12.9809783 30.2312195,11.301087 31.9107317,9.77391304 C32.8268293,9.01032609 33.5902439,8.24673913 34.5063415,7.48315217 C35.422439,6.71956522 36.3385366,5.95597826 37.4073171,5.3451087 C37.4073171,5.3451087 37.56,5.3451087 37.56,5.3451087 C37.56,5.3451087 37.56,5.49782609 37.56,5.49782609 C35.8804878,7.17771739 34.5063415,9.01032609 33.1321951,10.8429348 L28.8570732,16.1880435 C28.8570732,16.1880435 28.7043902,16.3407609 28.7043902,16.3407609 C28.2463415,16.6461957 27.6356098,17.1043478 27.177561,17.4097826 L25.6507317,18.326087 C24.5819512,18.9369565 23.5131707,19.3951087 22.4443902,19.8532609 C21.3756098,20.311413 20.3068293,20.7695652 19.2380488,21.2277174 C18.1692683,21.6858696 17.1004878,21.9913043 16.0317073,22.4494565 C13.8941463,23.2130435 11.6039024,23.823913 9.46634146,24.4347826 C7.32878049,25.0456522 5.03853659,25.6565217 2.90097561,26.2673913 C2.2902439,26.4201087 1.52682927,25.9619565 1.37414634,25.351087 C1.22146341,24.7402174 1.52682927,24.2820652 1.98487805,23.9766304 L2.74829268,23.6711957 C3.05365854,23.5184783 3.20634146,23.3657609 3.51170732,23.2130435 C3.9697561,22.9076087 4.42780488,22.4494565 4.88585366,22.1440217 C5.64926829,21.3804348 6.41268293,20.4641304 7.17609756,19.3951087 C7.78682927,18.326087 8.39756098,17.2570652 8.85560976,16.1880435 C9.31365854,15.1190217 9.77170732,13.8972826 10.0770732,12.8282609 L10.0770732,12.6755435 C10.6878049,11.7592391 11.1458537,10.6902174 11.7565854,9.77391304 L12.8253659,8.39945652 C13.1307317,7.94130435 13.5887805,7.63586957 14.0468293,7.17771739 C14.504878,6.71956522 14.8102439,6.41413043 15.2682927,5.95597826 C15.7263415,5.65054348 16.1843902,5.1923913 16.642439,4.88695652 L18.0165854,3.97065217 C18.4746341,3.66521739 19.0853659,3.5125 19.5434146,3.20706522 C20.0014634,2.90163043 20.6121951,2.74891304 21.0702439,2.59619565 C21.5282927,2.44347826 22.1390244,2.13804348 22.5970732,2.13804348 C23.2078049,1.98532609 23.6658537,1.8326087 24.2765854,1.6798913 C24.8873171,1.52717391 25.3453659,1.37445652 25.9560976,1.37445652 C28.0936585,1.06902174 30.3839024,0.916304348 32.5214634,1.22173913 C32.6741463,1.22173913 32.6741463,1.37445652 32.6741463,1.37445652 C32.6741463,1.8326087 32.6741463,1.8326087 32.5214634,1.8326087 Z" id="XMLID_27_"></path>
                    </g>
                    <g id="XMLID_18_" transform="translate(134.360976, 83.994565)" fill="#666666" fill-rule="nonzero">
                        <path d="M44.1253659,22.9076087 C43.0565854,22.4494565 41.9878049,22.1440217 40.7663415,21.838587 C40.1556098,21.6858696 39.697561,21.5331522 39.0868293,21.3804348 C38.4760976,21.2277174 38.0180488,21.2277174 37.56,21.2277174 L37.4073171,21.2277174 L37.2546341,21.075 C33.5902439,18.1733696 30.0785366,15.1190217 26.5668293,12.0646739 C24.7346341,10.5375 23.055122,9.01032609 21.2229268,7.63586957 C20.3068293,6.87228261 19.3907317,6.10869565 18.6273171,5.49782609 C18.1692683,5.1923913 17.7112195,4.73423913 17.2531707,4.42880435 C16.795122,4.12336957 16.3370732,3.81793478 16.0317073,3.5125 L18.0165854,2.90163043 C16.9478049,4.58152174 15.8790244,6.26141304 14.8102439,7.94130435 C13.7414634,9.62119565 12.52,11.1483696 11.2985366,12.8282609 C10.0770732,14.3554348 8.85560976,16.0353261 7.48146341,17.4097826 C6.71804878,18.1733696 6.10731707,18.9369565 5.19121951,19.5478261 C4.73317073,19.8532609 4.42780488,20.1586957 3.9697561,20.4641304 C3.51170732,20.7695652 3.05365854,21.075 2.2902439,21.2277174 L2.74829268,20.9222826 C2.90097561,20.7695652 2.74829268,20.7695652 2.90097561,20.6168478 C2.90097561,20.4641304 2.90097561,20.4641304 2.90097561,20.4641304 C2.90097561,20.4641304 2.90097561,20.4641304 2.90097561,20.4641304 C2.90097561,20.4641304 2.90097561,20.4641304 3.05365854,20.6168478 C3.20634146,20.6168478 3.20634146,20.7695652 3.35902439,20.7695652 C3.51170732,20.7695652 3.66439024,20.9222826 3.81707317,20.9222826 C4.5804878,21.2277174 5.34390244,21.2277174 6.26,21.3804348 C7.17609756,21.3804348 8.09219512,21.5331522 9.16097561,21.6858696 C9.61902439,21.6858696 10.0770732,21.838587 10.535122,21.9913043 C10.8404878,21.9913043 10.9931707,22.1440217 11.2985366,22.1440217 C11.4512195,22.1440217 11.6039024,22.2967391 11.6039024,22.2967391 C11.7565854,22.2967391 11.9092683,22.4494565 12.0619512,22.6021739 L11.9092683,22.4494565 C12.3673171,22.6021739 12.6726829,22.9076087 12.9780488,23.2130435 C13.2834146,23.5184783 13.5887805,23.9766304 13.4360976,24.4347826 C13.4360976,23.9766304 13.1307317,23.6711957 12.8253659,23.5184783 C12.52,23.3657609 12.0619512,23.2130435 11.7565854,23.0603261 L11.6039024,22.9076087 C11.6039024,22.9076087 11.4512195,22.9076087 11.4512195,22.9076087 C11.2985366,22.9076087 11.2985366,22.9076087 11.1458537,22.9076087 C10.9931707,22.9076087 10.6878049,22.9076087 10.535122,22.9076087 C10.0770732,22.9076087 9.61902439,22.9076087 9.16097561,22.9076087 C8.24487805,22.9076087 7.32878049,22.9076087 6.41268293,23.0603261 C5.49658537,23.0603261 4.5804878,22.9076087 3.66439024,22.7548913 C3.35902439,22.7548913 3.20634146,22.6021739 2.90097561,22.6021739 C2.59560976,22.6021739 2.44292683,22.4494565 2.13756098,22.2967391 C1.83219512,22.1440217 1.52682927,21.838587 1.37414634,21.3804348 C1.22146341,21.075 1.22146341,20.7695652 1.22146341,20.4641304 C1.22146341,20.1586957 1.37414634,20.0059783 1.52682927,19.7005435 L1.6795122,19.5478261 L1.98487805,19.3951087 C2.59560976,19.0896739 3.35902439,18.6315217 3.9697561,17.8679348 C4.5804878,17.2570652 5.19121951,16.4934783 5.80195122,15.7298913 C7.02341463,14.2027174 8.24487805,12.6755435 9.31365854,11.1483696 C10.382439,9.62119565 11.6039024,7.94130435 12.6726829,6.26141304 C13.7414634,4.58152174 14.8102439,2.90163043 15.8790244,1.37445652 L16.642439,0.152717391 L17.8639024,0.916304348 C18.4746341,1.22173913 18.9326829,1.6798913 19.3907317,1.98532609 C19.8487805,2.29076087 20.3068293,2.74891304 20.764878,3.05434783 C21.6809756,3.81793478 22.5970732,4.58152174 23.5131707,5.3451087 C25.1926829,6.87228261 27.024878,8.55217391 28.7043902,10.0793478 C32.0634146,13.286413 35.422439,16.6461957 38.4760976,20.0059783 L38.0180488,19.8532609 C38.6287805,19.8532609 39.2395122,20.1586957 39.8502439,20.311413 C40.4609756,20.4641304 40.9190244,20.7695652 41.5297561,21.075 C42.1404878,21.6858696 43.2092683,22.2967391 44.1253659,22.9076087 Z" id="XMLID_26_"></path>
                    </g>
                    <g id="XMLID_146_" transform="translate(151.156098, 90.103261)" fill="#666666" fill-rule="nonzero">
                        <path d="M19.0853659,16.798913 L0.916097561,0.610869565 L20.0014634,15.7298913 C20.3068293,16.0353261 20.4595122,16.4934783 20.1541463,16.798913 C19.8487805,17.1043478 19.3907317,17.1043478 19.0853659,16.798913 C19.0853659,16.9516304 19.0853659,16.9516304 19.0853659,16.798913 Z" id="XMLID_148_"></path>
                    </g>
                    <g id="XMLID_143_" transform="translate(149.629268, 94.684783)" fill="#666666" fill-rule="nonzero">
                        <path d="M13.2834146,12.2173913 L1.22146341,0.458152174 L14.1995122,10.9956522 C14.504878,11.301087 14.504878,11.7592391 14.3521951,12.0646739 C14.0468293,12.5228261 13.5887805,12.5228261 13.2834146,12.2173913 C13.2834146,12.2173913 13.2834146,12.2173913 13.2834146,12.2173913 Z" id="XMLID_145_"></path>
                    </g>
                    <g id="XMLID_140_" transform="translate(148.102439, 99.266304)" fill="#666666" fill-rule="nonzero">
                        <path d="M8.24487805,7.025 L0.763414634,0 L9.16097561,5.95597826 C9.46634146,6.26141304 9.61902439,6.71956522 9.31365854,7.025 C9.16097561,7.33043478 8.70292683,7.33043478 8.24487805,7.025 C8.24487805,7.17771739 8.24487805,7.025 8.24487805,7.025 Z" id="XMLID_142_"></path>
                    </g>
                    <g id="XMLID_137_" transform="translate(143.521951, 100.793478)" fill="#666666" fill-rule="nonzero">
                        <path d="M7.17609756,6.41413043 L1.22146341,0.763586957 L8.09219512,5.1923913 C8.39756098,5.3451087 8.5502439,5.95597826 8.39756098,6.26141304 C8.09219512,6.56684783 7.63414634,6.71956522 7.17609756,6.41413043 C7.32878049,6.56684783 7.17609756,6.41413043 7.17609756,6.41413043 Z" id="XMLID_139_"></path>
                    </g>
                    <g id="XMLID_16_" transform="translate(77.868293, 103.847826)" fill="#666666" fill-rule="nonzero">
                        <path d="M27.9409756,6.87228261 C26.2614634,6.41413043 24.5819512,5.95597826 23.055122,5.49782609 C22.2917073,5.3451087 21.3756098,5.03967391 20.6121951,4.88695652 C19.8487805,4.73423913 18.9326829,4.58152174 18.1692683,4.42880435 C17.4058537,4.27608696 16.4897561,4.12336957 15.7263415,3.97065217 C14.9629268,3.81793478 14.0468293,3.66521739 13.2834146,3.66521739 C12.52,3.5125 11.6039024,3.5125 10.8404878,3.35978261 C9.92439024,3.20706522 9.16097561,3.05434783 8.24487805,3.05434783 L8.70292683,3.05434783 C8.70292683,3.05434783 8.5502439,3.05434783 8.39756098,3.20706522 C8.24487805,3.20706522 8.09219512,3.35978261 7.9395122,3.35978261 C7.63414634,3.5125 7.32878049,3.66521739 7.02341463,3.81793478 C6.41268293,4.12336957 5.95463415,4.58152174 5.34390244,5.1923913 C4.88585366,5.65054348 4.27512195,6.26141304 3.81707317,6.87228261 C3.35902439,7.48315217 2.90097561,8.09402174 2.44292683,8.7048913 L2.44292683,8.39945652 C2.44292683,8.24673913 2.44292683,8.39945652 2.44292683,8.39945652 C2.44292683,8.39945652 2.44292683,8.39945652 2.44292683,8.55217391 C2.44292683,8.55217391 2.44292683,8.7048913 2.44292683,8.8576087 C2.44292683,9.01032609 2.59560976,9.16304348 2.59560976,9.46847826 C2.74829268,9.77391304 3.05365854,10.2320652 3.35902439,10.5375 C2.90097561,10.3847826 2.44292683,10.2320652 1.98487805,9.92663043 C1.6795122,9.77391304 1.52682927,9.62119565 1.37414634,9.31576087 C1.22146341,9.16304348 1.22146341,9.01032609 1.06878049,9.01032609 C1.06878049,9.01032609 0.916097561,8.8576087 0.916097561,8.7048913 C0.916097561,8.55217391 0.916097561,8.55217391 0.763414634,8.39945652 L0.763414634,8.24673913 L0.916097561,7.94130435 C1.22146341,7.17771739 1.52682927,6.41413043 1.83219512,5.65054348 C2.2902439,4.88695652 2.59560976,4.12336957 3.20634146,3.5125 C3.66439024,2.74891304 4.27512195,2.13804348 5.03853659,1.6798913 C5.34390244,1.37445652 5.80195122,1.06902174 6.10731707,0.916304348 C6.26,0.763586957 6.56536585,0.610869565 6.71804878,0.610869565 C7.02341463,0.458152174 7.17609756,0.458152174 7.48146341,0.305434783 L7.63414634,0.305434783 L7.9395122,0.305434783 C9.77170732,0.305434783 11.4512195,0.458152174 13.1307317,0.763586957 C14.8102439,1.06902174 16.642439,1.52717391 18.1692683,1.98532609 C19.8487805,2.59619565 21.5282927,3.20706522 23.055122,3.97065217 C25.1926829,4.73423913 26.7195122,5.65054348 27.9409756,6.87228261 Z" id="XMLID_25_"></path>
                    </g>
                    <path d="M233.299512,114.996196 C233.299512,114.843478 233.146829,114.843478 233.146829,114.690761 C233.146829,114.232609 232.841463,113.927174 232.536098,113.774457 C232.536098,113.774457 231.925366,113.621739 231.772683,113.621739 C231.467317,113.469022 231.009268,113.469022 230.703902,113.621739 C230.55122,113.621739 229.635122,113.927174 229.482439,114.079891 C228.871707,114.385326 228.566341,114.843478 228.260976,115.607065 C227.95561,115.9125 227.95561,116.52337 228.413659,116.828804 C229.329756,117.286957 230.398537,117.897826 231.467317,117.592391 C231.772683,117.592391 232.230732,117.439674 232.383415,117.134239 C232.68878,116.828804 232.841463,116.52337 232.841463,116.065217 C232.994146,115.759783 232.994146,115.759783 232.994146,115.454348 C233.146829,115.607065 233.299512,115.148913 233.299512,114.996196 Z" id="XMLID_133_" fill="#666666" fill-rule="nonzero"></path>
                    <path d="M211.313171,115.148913 C211.313171,115.148913 211.313171,114.996196 211.160488,114.996196 C211.160488,114.690761 211.007805,114.538043 210.702439,114.385326 C210.702439,114.385326 210.397073,114.232609 210.24439,114.232609 C210.091707,114.232609 209.786341,114.232609 209.633659,114.232609 C209.480976,114.232609 209.022927,114.385326 208.870244,114.538043 C208.564878,114.690761 208.259512,114.996196 208.106829,115.454348 C207.954146,115.759783 207.954146,116.065217 208.106829,116.217935 C208.717561,116.52337 209.328293,116.828804 209.939024,116.676087 C210.091707,116.676087 210.397073,116.52337 210.549756,116.370652 C210.702439,116.217935 210.855122,116.065217 210.855122,115.759783 C211.007805,115.607065 211.007805,115.607065 211.007805,115.454348 C211.313171,115.607065 211.465854,115.30163 211.313171,115.148913 Z" id="XMLID_132_" fill="#666666" fill-rule="nonzero"></path>
                    <path d="M98.022439,110.109239 C98.022439,110.109239 98.022439,109.956522 97.8697561,109.956522 C97.8697561,109.651087 97.7170732,109.49837 97.4117073,109.345652 C97.4117073,109.345652 97.1063415,109.192935 96.9536585,109.192935 C96.8009756,109.192935 96.4956098,109.192935 96.3429268,109.192935 C96.1902439,109.192935 95.7321951,109.345652 95.5795122,109.49837 C95.1214634,109.651087 94.9687805,109.956522 94.8160976,110.414674 C94.6634146,110.720109 94.6634146,111.025543 94.8160976,111.178261 C95.4268293,111.483696 96.037561,111.78913 96.6482927,111.636413 C96.8009756,111.636413 97.1063415,111.483696 97.2590244,111.330978 C97.4117073,111.178261 97.5643902,111.025543 97.5643902,110.720109 C97.7170732,110.567391 97.7170732,110.567391 97.7170732,110.414674 C97.8697561,110.567391 98.022439,110.261957 98.022439,110.109239 Z" id="XMLID_131_" fill="#666666" fill-rule="nonzero"></path>
                    <path d="M85.9604878,111.636413 C85.9604878,111.636413 85.9604878,111.636413 85.9604878,111.636413 C85.8078049,111.330978 85.8078049,111.178261 85.655122,111.178261 C85.655122,111.178261 85.502439,111.178261 85.3497561,111.025543 C85.1970732,111.025543 85.0443902,111.025543 84.8917073,111.025543 C84.7390244,111.025543 84.4336585,111.178261 84.4336585,111.178261 C84.1282927,111.330978 84.1282927,111.483696 83.9756098,111.78913 C83.8229268,111.941848 83.8229268,112.094565 83.9756098,112.247283 C84.2809756,112.4 84.7390244,112.705435 85.1970732,112.552717 C85.3497561,112.552717 85.502439,112.552717 85.502439,112.4 C85.655122,112.247283 85.655122,112.094565 85.655122,111.941848 C85.655122,111.78913 85.655122,111.78913 85.8078049,111.636413 C85.9604878,111.941848 85.9604878,111.78913 85.9604878,111.636413 Z" id="XMLID_130_" fill="#666666" fill-rule="nonzero"></path>
                    <path d="M90.5409756,108.582065 C90.5409756,108.582065 90.5409756,108.582065 90.5409756,108.582065 C90.5409756,108.429348 90.3882927,108.27663 90.2356098,108.27663 C90.2356098,108.27663 90.0829268,108.27663 90.0829268,108.27663 C89.9302439,108.27663 89.9302439,108.27663 89.777561,108.27663 C89.777561,108.27663 89.4721951,108.429348 89.4721951,108.429348 C89.3195122,108.582065 89.1668293,108.734783 89.1668293,108.8875 C89.1668293,109.040217 89.0141463,109.192935 89.1668293,109.192935 C89.4721951,109.345652 89.777561,109.49837 90.0829268,109.49837 C90.2356098,109.49837 90.2356098,109.49837 90.3882927,109.345652 C90.5409756,109.192935 90.5409756,109.192935 90.5409756,109.040217 C90.3882927,108.8875 90.3882927,108.8875 90.5409756,108.582065 C90.5409756,108.8875 90.5409756,108.734783 90.5409756,108.582065 Z" id="XMLID_129_" fill="#666666" fill-rule="nonzero"></path>
                    <path d="M237.116585,160.96413 C244.903415,159.436957 253.453659,155.008152 262.767317,152.717391 L273.913171,150.273913 C284.600976,147.219565 292.998537,142.943478 292.998537,142.943478 C305.365854,134.08587 304.755122,133.322283 304.755122,133.322283 L296.662927,133.933152 C294.525366,134.544022 285.211707,135.460326 285.211707,135.460326 C291.62439,129.35163 302.770244,123.54837 302.770244,123.54837 C295.746829,111.025543 249.178537,105.375 249.178537,105.375 L237.269268,104.458696 C237.269268,104.458696 129.627805,103.695109 93.5946341,114.079891 C93.5946341,114.079891 75.7307317,114.538043 73.4404878,113.316304 L65.6536585,110.261957 C65.6536585,110.261957 55.5765854,106.291304 49.6219512,103.084239 C49.6219512,103.084239 15.7263415,87.3543478 7.02341463,87.6597826 C7.02341463,87.6597826 5.03853659,87.8125 21.0702439,120.799457 C21.0702439,120.799457 25.3453659,126.602717 18.1692683,135.460326 C18.1692683,135.460326 4.5804878,157.146196 4.5804878,164.782065 C4.5804878,164.782065 18.6273171,168.141848 54.6604878,145.539674 C54.6604878,145.539674 72.5243902,137.903804 74.8146341,138.361957" id="XMLID_8_" stroke="#666666" stroke-width="2.1"></path>
                    <path d="M218.489268,123.54837 C218.489268,123.54837 218.489268,123.395652 218.336585,123.395652 C218.336585,123.090217 218.183902,122.9375 217.878537,122.784783 C217.878537,122.784783 217.573171,122.632065 217.420488,122.632065 C217.267805,122.632065 216.962439,122.632065 216.809756,122.632065 C216.657073,122.632065 216.199024,122.784783 216.046341,122.9375 C215.740976,123.090217 215.43561,123.395652 215.282927,123.853804 C215.130244,124.159239 215.130244,124.464674 215.282927,124.617391 C215.893659,124.922826 216.50439,125.228261 217.115122,125.075543 C217.267805,125.075543 217.573171,124.922826 217.725854,124.770109 C217.878537,124.617391 218.03122,124.464674 218.03122,124.159239 C218.183902,124.006522 218.183902,124.006522 218.183902,123.853804 C218.336585,124.006522 218.489268,123.701087 218.489268,123.54837 Z" id="XMLID_126_" fill="#666666" fill-rule="nonzero"></path>
                    <path d="M166.577073,117.286957 C166.577073,117.286957 166.577073,117.134239 166.42439,117.134239 C166.42439,116.828804 166.271707,116.676087 165.966341,116.52337 C165.966341,116.52337 165.660976,116.370652 165.508293,116.370652 C165.35561,116.370652 165.050244,116.370652 164.897561,116.370652 C164.744878,116.370652 164.286829,116.52337 164.134146,116.676087 C163.82878,116.828804 163.523415,117.134239 163.370732,117.592391 C163.218049,117.897826 163.218049,118.203261 163.370732,118.355978 C163.981463,118.661413 164.592195,118.966848 165.202927,118.81413 C165.35561,118.81413 165.660976,118.661413 165.813659,118.508696 C165.966341,118.355978 166.119024,118.203261 166.119024,117.897826 C166.271707,117.745109 166.271707,117.745109 166.271707,117.592391 C166.42439,117.592391 166.577073,117.286957 166.577073,117.286957 Z" id="XMLID_125_" fill="#666666" fill-rule="nonzero"></path>
                    <path d="M113.290732,120.341304 C113.290732,120.188587 113.138049,120.188587 113.138049,120.03587 C113.138049,119.577717 112.832683,119.272283 112.527317,119.119565 C112.527317,119.119565 111.916585,118.966848 111.763902,118.966848 C111.458537,118.81413 111.000488,118.81413 110.695122,118.966848 C110.542439,118.966848 109.626341,119.272283 109.473659,119.425 C108.862927,119.730435 108.557561,120.188587 108.252195,120.952174 C107.946829,121.257609 107.946829,121.868478 108.404878,122.173913 C109.320976,122.632065 110.389756,123.242935 111.458537,122.9375 C111.763902,122.9375 112.221951,122.784783 112.374634,122.479348 C112.68,122.173913 112.832683,121.868478 112.832683,121.410326 C112.985366,121.104891 112.985366,121.104891 112.985366,120.799457 C113.138049,120.952174 113.443415,120.341304 113.290732,120.341304 Z" id="XMLID_124_" fill="#666666" fill-rule="nonzero"></path>
                    <path d="M118.634634,133.933152 C118.634634,133.780435 118.481951,133.780435 118.481951,133.627717 C118.481951,133.169565 118.176585,132.86413 117.87122,132.711413 C117.87122,132.711413 117.260488,132.558696 117.107805,132.558696 C116.802439,132.405978 116.34439,132.405978 116.039024,132.558696 C115.886341,132.558696 114.970244,132.86413 114.817561,133.016848 C114.206829,133.322283 113.901463,133.780435 113.596098,134.544022 C113.290732,134.849457 113.290732,135.460326 113.74878,135.765761 C114.664878,136.223913 115.733659,136.834783 116.802439,136.529348 C117.107805,136.529348 117.565854,136.37663 117.718537,136.071196 C118.023902,135.765761 118.176585,135.460326 118.176585,135.002174 C118.329268,134.696739 118.329268,134.696739 118.329268,134.391304 C118.481951,134.544022 118.787317,134.08587 118.634634,133.933152 Z" id="XMLID_123_" fill="#666666" fill-rule="nonzero"></path>
                    <path d="M129.780488,123.54837 C129.780488,123.54837 129.780488,123.395652 129.627805,123.395652 C129.627805,123.090217 129.475122,122.9375 129.169756,122.784783 C129.169756,122.784783 128.86439,122.632065 128.711707,122.632065 C128.559024,122.632065 128.253659,122.632065 128.100976,122.632065 C127.948293,122.632065 127.490244,122.784783 127.337561,122.9375 C127.032195,123.090217 126.726829,123.395652 126.574146,123.853804 C126.421463,124.159239 126.421463,124.464674 126.574146,124.617391 C127.184878,124.922826 127.79561,125.228261 128.406341,125.075543 C128.559024,125.075543 128.86439,124.922826 129.017073,124.770109 C129.169756,124.617391 129.322439,124.464674 129.322439,124.159239 C129.475122,124.006522 129.475122,124.006522 129.475122,123.853804 C129.627805,124.006522 129.780488,123.701087 129.780488,123.54837 Z" id="XMLID_122_" fill="#666666" fill-rule="nonzero"></path>
                    <path d="M150.698049,114.079891 C150.698049,114.079891 150.545366,114.079891 150.698049,114.079891 C150.545366,113.774457 150.545366,113.621739 150.392683,113.621739 C150.392683,113.621739 150.087317,113.621739 150.087317,113.469022 C149.934634,113.469022 149.781951,113.469022 149.629268,113.469022 C149.476585,113.469022 149.17122,113.621739 149.17122,113.621739 C148.865854,113.774457 148.713171,113.927174 148.560488,114.232609 C148.407805,114.385326 148.407805,114.690761 148.560488,114.690761 C149.018537,114.843478 149.476585,115.148913 149.934634,114.996196 C150.087317,114.996196 150.24,114.996196 150.392683,114.843478 C150.545366,114.690761 150.545366,114.538043 150.545366,114.385326 C150.545366,114.232609 150.545366,114.232609 150.698049,114.079891 C150.545366,114.385326 150.698049,114.079891 150.698049,114.079891 Z" id="XMLID_121_" fill="#666666" fill-rule="nonzero"></path>
                    <path d="M183.524878,122.479348 C183.524878,122.479348 183.372195,122.479348 183.524878,122.479348 C183.372195,122.173913 183.372195,122.021196 183.219512,122.021196 C183.219512,122.021196 182.914146,122.021196 182.914146,121.868478 C182.761463,121.868478 182.60878,121.868478 182.456098,121.868478 C182.303415,121.868478 181.998049,122.021196 181.998049,122.021196 C181.692683,122.173913 181.54,122.32663 181.387317,122.632065 C181.234634,122.784783 181.234634,123.090217 181.387317,123.090217 C181.845366,123.242935 182.303415,123.54837 182.761463,123.395652 C182.914146,123.395652 183.066829,123.395652 183.219512,123.242935 C183.372195,123.090217 183.372195,122.9375 183.372195,122.784783 C183.372195,122.632065 183.372195,122.632065 183.524878,122.479348 C183.372195,122.784783 183.524878,122.632065 183.524878,122.479348 Z" id="XMLID_120_" fill="#666666" fill-rule="nonzero"></path>
                    <path d="M229.940488,124.922826 C229.940488,124.922826 229.940488,124.922826 229.940488,124.922826 C229.787805,124.617391 229.787805,124.464674 229.635122,124.464674 C229.635122,124.464674 229.329756,124.464674 229.329756,124.311957 C229.177073,124.311957 229.02439,124.311957 228.871707,124.311957 C228.719024,124.311957 228.413659,124.464674 228.413659,124.464674 C228.108293,124.617391 227.95561,124.770109 227.802927,125.075543 C227.650244,125.228261 227.650244,125.533696 227.802927,125.533696 C228.260976,125.686413 228.719024,125.991848 229.177073,125.83913 C229.329756,125.83913 229.482439,125.83913 229.635122,125.686413 C229.787805,125.533696 229.787805,125.380978 229.787805,125.228261 C229.787805,125.075543 229.787805,125.075543 229.940488,124.922826 C229.787805,125.228261 229.940488,125.075543 229.940488,124.922826 Z" id="XMLID_119_" fill="#666666" fill-rule="nonzero"></path>
                    <path d="M291.62439,131.184239 C291.62439,131.184239 285.211707,137.59837 283.074146,136.529348 C283.074146,136.529348 294.372683,142.638043 306.587317,132.253261 L291.62439,131.184239 Z" id="XMLID_118_" fill="#666666" fill-rule="nonzero"></path>
                    <g id="XMLID_115_" transform="translate(274.829268, 125.228261)" fill="#666666" fill-rule="nonzero">
                        <path d="M16.0317073,0.152717391 C16.0317073,0.152717391 14.3521951,1.06902174 11.7565854,2.59619565 C10.535122,3.35978261 9.00829268,4.27608696 7.48146341,5.1923913 C5.95463415,6.26141304 4.27512195,7.33043478 3.05365854,8.7048913 C2.44292683,9.31576087 1.6795122,10.0793478 1.6795122,10.6902174 C1.6795122,10.8429348 1.6795122,10.9956522 1.6795122,10.9956522 C1.6795122,11.1483696 1.83219512,11.301087 1.83219512,11.301087 C1.98487805,11.4538043 2.2902439,11.6065217 2.59560976,11.7592391 C3.20634146,11.9119565 4.12243902,11.7592391 4.88585366,11.6065217 C5.19121951,11.4538043 5.64926829,11.4538043 5.95463415,11.301087 C6.26,11.1483696 6.71804878,10.9956522 7.02341463,10.8429348 C8.39756098,10.2320652 9.46634146,9.77391304 10.2297561,9.31576087 C10.9931707,8.8576087 11.4512195,8.7048913 11.4512195,8.7048913 L11.6039024,8.8576087 C11.6039024,8.8576087 11.2985366,9.16304348 10.535122,9.77391304 C10.2297561,10.0793478 9.77170732,10.3847826 9.31365854,10.6902174 C8.85560976,10.9956522 8.24487805,11.4538043 7.63414634,11.9119565 C7.02341463,12.3701087 6.26,12.6755435 5.34390244,12.9809783 C4.5804878,13.286413 3.51170732,13.5918478 2.2902439,13.286413 C1.06878049,13.1336957 -0.152682927,11.9119565 0.152682927,10.3847826 C0.610731707,9.16304348 1.37414634,8.39945652 2.13756098,7.78858696 C3.66439024,6.41413043 5.34390244,5.3451087 7.02341463,4.42880435 C8.70292683,3.5125 10.2297561,2.74891304 11.4512195,2.13804348 C14.0468293,0.916304348 15.8790244,0.152717391 16.0317073,0.152717391 Z" id="XMLID_117_"></path>
                    </g>
                    <g id="XMLID_112_" transform="translate(242.765854, 113.010870)" fill="#666666" fill-rule="nonzero">
                        <path d="M11.2985366,0.763586957 C9.00829268,3.5125 7.17609756,6.71956522 5.64926829,9.92663043 C4.12243902,13.1336957 3.05365854,16.4934783 2.90097561,20.0059783 C2.74829268,21.6858696 2.90097561,23.3657609 3.35902439,25.0456522 C3.81707317,26.5728261 4.5804878,28.1 5.49658537,29.4744565 C6.41268293,30.848913 7.63414634,32.0706522 8.85560976,33.1396739 C10.0770732,34.2086957 11.4512195,35.2777174 12.9780488,36.3467391 L13.2834146,36.6521739 L13.4360976,36.8048913 C13.4360976,36.9576087 13.7414634,37.2630435 13.7414634,37.4157609 C13.8941463,37.5684783 14.0468293,37.873913 14.1995122,38.0266304 C14.504878,38.4847826 14.9629268,38.7902174 15.2682927,39.0956522 C15.4209756,39.2483696 15.7263415,39.401087 15.8790244,39.5538043 C16.1843902,39.7065217 16.3370732,39.8592391 16.642439,39.8592391 C16.9478049,40.0119565 17.1004878,40.0119565 17.4058537,40.0119565 C17.7112195,40.0119565 18.0165854,40.0119565 18.3219512,40.1646739 L18.3219512,40.4701087 C18.0165854,40.6228261 17.7112195,40.7755435 17.4058537,40.7755435 C17.1004878,40.7755435 16.795122,40.9282609 16.3370732,40.9282609 C16.0317073,40.9282609 15.7263415,40.9282609 15.2682927,40.7755435 C14.9629268,40.7755435 14.657561,40.6228261 14.3521951,40.4701087 C13.7414634,40.1646739 13.1307317,39.8592391 12.52,39.401087 C12.2146341,39.2483696 12.0619512,38.9429348 11.7565854,38.7902174 C11.4512195,38.4847826 11.2985366,38.3320652 10.9931707,38.0266304 L11.4512195,38.4847826 C10.535122,38.0266304 9.77170732,37.7211957 9.00829268,37.1103261 C8.24487805,36.6521739 7.32878049,36.0413043 6.56536585,35.4304348 C5.03853659,34.2086957 3.66439024,32.8342391 2.74829268,31.0016304 C0.610731707,27.6418478 4.42423875e-14,23.5184783 0.45804878,19.7005435 C0.916097561,15.8826087 2.2902439,12.3701087 4.27512195,9.16304348 C6.10731707,5.95597826 8.39756098,3.05434783 10.9931707,0.458152174 L11.2985366,0.763586957 Z" id="XMLID_308_"></path>
                    </g>
                    <g id="XMLID_109_" transform="translate(254.980488, 120.646739)" fill="#666666" fill-rule="nonzero">
                        <path d="M2.90097561,1.06902174 C2.59560976,1.98532609 2.2902439,2.90163043 2.13756098,3.81793478 C1.98487805,4.73423913 1.6795122,5.80326087 1.6795122,6.71956522 C1.52682927,7.63586957 1.52682927,8.7048913 1.52682927,9.62119565 C1.52682927,10.0793478 1.52682927,10.5375 1.52682927,10.9956522 L1.6795122,12.3701087 L1.98487805,13.7445652 C1.98487805,14.2027174 2.2902439,14.6608696 2.2902439,15.1190217 C2.44292683,15.5771739 2.59560976,16.0353261 2.74829268,16.4934783 C2.90097561,16.9516304 3.05365854,17.4097826 3.35902439,17.7152174 L4.12243902,18.9369565 C4.42780488,19.2423913 4.73317073,19.7005435 5.03853659,20.0059783 L5.49658537,20.4641304 L5.95463415,20.9222826 L7.02341463,21.838587 L6.71804878,21.6858696 C8.09219512,22.1440217 9.46634146,22.6021739 10.8404878,22.9076087 C11.4512195,23.0603261 12.2146341,23.2130435 12.8253659,23.2130435 C13.1307317,23.2130435 13.4360976,23.2130435 13.7414634,23.2130435 C13.8941463,23.2130435 13.8941463,23.2130435 14.0468293,23.2130435 C14.1995122,23.2130435 14.0468293,23.2130435 14.0468293,23.2130435 L13.4360976,24.2820652 L13.4360976,22.7548913 L13.4360976,21.2277174 C13.4360976,20.311413 13.2834146,19.2423913 13.1307317,18.326087 C13.1307317,17.8679348 12.9780488,17.4097826 12.8253659,16.9516304 C12.6726829,16.4934783 12.52,16.0353261 12.3673171,15.7298913 C12.2146341,15.5771739 12.2146341,15.2717391 12.0619512,15.1190217 C11.9092683,14.9663043 11.9092683,14.813587 11.7565854,14.6608696 C11.6039024,14.5081522 11.4512195,14.3554348 11.4512195,14.2027174 C11.2985366,14.05 11.1458537,13.8972826 10.9931707,13.8972826 L10.382439,13.4391304 L10.382439,13.1336957 C10.2297561,12.3701087 10.2297561,11.7592391 10.2297561,10.9956522 C10.2297561,10.2320652 10.2297561,9.62119565 10.2297561,8.8576087 C10.382439,7.48315217 10.6878049,5.95597826 11.2985366,4.73423913 L11.6039024,4.88695652 C11.4512195,6.26141304 11.6039024,7.48315217 11.7565854,8.8576087 C11.9092683,9.46847826 12.0619512,10.0793478 12.0619512,10.8429348 C12.2146341,11.4538043 12.3673171,12.0646739 12.52,12.6755435 L11.9092683,11.9119565 L12.8253659,12.3701087 C13.1307317,12.5228261 13.2834146,12.8282609 13.5887805,12.9809783 C13.8941463,13.1336957 14.0468293,13.4391304 14.1995122,13.7445652 C14.3521951,14.05 14.504878,14.2027174 14.657561,14.5081522 C14.9629268,15.1190217 15.2682927,15.5771739 15.4209756,16.1880435 C15.5736585,16.798913 15.7263415,17.2570652 15.8790244,17.8679348 C16.1843902,18.9369565 16.3370732,20.1586957 16.3370732,21.2277174 C16.3370732,21.838587 16.3370732,22.2967391 16.3370732,22.9076087 C16.3370732,23.5184783 16.3370732,23.9766304 16.1843902,24.5875 L16.0317073,25.5038043 L15.4209756,25.8092391 C15.1156098,25.9619565 14.657561,26.1146739 14.504878,26.1146739 C14.1995122,26.1146739 13.8941463,26.2673913 13.7414634,26.2673913 C13.2834146,26.2673913 12.8253659,26.2673913 12.3673171,26.1146739 C11.6039024,25.9619565 10.8404878,25.8092391 10.0770732,25.6565217 C8.5502439,25.1983696 7.17609756,24.7402174 5.80195122,24.1293478 L5.64926829,23.9766304 L5.49658537,23.823913 L4.42780488,22.7548913 L3.81707317,22.1440217 L3.35902439,21.5331522 C3.05365854,21.075 2.74829268,20.7695652 2.44292683,20.311413 L1.6795122,18.9369565 C1.37414634,18.4788043 1.37414634,18.0206522 1.06878049,17.4097826 C0.916097561,16.9516304 0.763414634,16.4934783 0.610731707,15.8826087 C0.45804878,15.4244565 0.305365854,14.813587 0.305365854,14.3554348 L0.152682927,12.8282609 L0.152682927,11.301087 C0.152682927,10.8429348 0.152682927,10.2320652 0.305365854,9.77391304 C0.45804878,8.7048913 0.610731707,7.78858696 0.763414634,6.87228261 C1.22146341,4.88695652 1.83219512,3.05434783 2.59560976,1.22173913 L2.90097561,1.06902174 Z" id="XMLID_111_"></path>
                    </g>
                    <g id="XMLID_104_" transform="translate(273.302439, 122.173913)" fill="#666666" fill-rule="nonzero">
                        <path d="M10.8404878,3.35978261 C10.8404878,3.35978261 10.2297561,3.81793478 9.16097561,4.27608696 C8.5502439,4.42880435 7.9395122,4.58152174 7.32878049,4.73423913 C6.56536585,4.73423913 5.80195122,4.58152174 5.03853659,4.42880435 C4.73317073,4.42880435 4.27512195,4.27608696 3.9697561,4.12336957 C3.66439024,3.97065217 3.20634146,3.81793478 2.90097561,3.66521739 C2.59560976,3.5125 2.2902439,3.20706522 1.98487805,3.05434783 C1.6795122,2.74891304 1.52682927,2.59619565 1.37414634,2.29076087 C1.22146341,1.98532609 1.06878049,1.8326087 0.916097561,1.6798913 C0.763414634,1.52717391 0.763414634,1.22173913 0.763414634,1.06902174 C0.610731707,0.763586957 0.610731707,0.610869565 0.610731707,0.610869565 L0.763414634,0.610869565 C0.763414634,0.610869565 0.916097561,0.763586957 1.06878049,1.06902174 C1.22146341,1.22173913 1.22146341,1.37445652 1.37414634,1.52717391 C1.52682927,1.6798913 1.6795122,1.8326087 1.83219512,1.98532609 C1.98487805,2.13804348 2.2902439,2.29076087 2.44292683,2.44347826 C2.74829268,2.59619565 2.90097561,2.74891304 3.20634146,2.74891304 C3.51170732,2.90163043 3.81707317,2.90163043 4.12243902,3.05434783 C4.42780488,3.05434783 4.73317073,3.20706522 5.19121951,3.20706522 C5.80195122,3.20706522 6.56536585,3.20706522 7.17609756,3.05434783 C7.78682927,3.05434783 8.39756098,3.05434783 9.00829268,3.05434783 C10.0770732,3.05434783 10.8404878,3.20706522 10.8404878,3.35978261 Z" id="XMLID_178_"></path>
                    </g>
                    <g id="XMLID_13_" transform="translate(149.629268, 151.190217)" fill="#666666" fill-rule="nonzero">
                        <path d="M27.9409756,2.13804348 C27.6356098,4.73423913 27.024878,7.33043478 26.2614634,9.92663043 C25.9560976,11.1483696 25.4980488,12.5228261 25.04,13.7445652 C24.5819512,14.9663043 24.1239024,16.3407609 23.5131707,17.5625 C22.4443902,20.0059783 21.2229268,22.4494565 19.3907317,24.7402174 C18.9326829,25.351087 18.4746341,25.8092391 18.0165854,26.4201087 C17.5585366,26.8782609 16.9478049,27.4891304 16.4897561,27.9472826 C15.8790244,28.4054348 15.2682927,28.863587 14.657561,29.1690217 L13.5887805,29.6271739 L12.52,30.0853261 L11.7565854,30.3907609 L11.1458537,29.6271739 C10.6878049,29.1690217 10.382439,28.7108696 9.92439024,28.4054348 C9.61902439,27.9472826 9.16097561,27.4891304 8.85560976,27.1836957 C8.24487805,26.2673913 7.63414634,25.351087 7.02341463,24.4347826 C5.80195122,22.6021739 4.88585366,20.6168478 3.9697561,18.6315217 C3.51170732,17.7152174 3.20634146,16.6461957 2.74829268,15.5771739 C2.44292683,14.5081522 2.13756098,13.5918478 1.83219512,12.5228261 C1.37414634,10.3847826 0.916097561,8.24673913 0.763414634,6.10869565 L0.763414634,5.95597826 L0.763414634,5.80326087 C0.763414634,5.49782609 0.916097561,5.1923913 0.916097561,5.03967391 C1.06878049,4.73423913 1.06878049,4.58152174 1.22146341,4.27608696 C1.37414634,3.81793478 1.6795122,3.35978261 2.13756098,2.90163043 C2.44292683,2.44347826 2.90097561,2.13804348 3.51170732,1.8326087 C3.9697561,1.52717391 4.5804878,1.52717391 5.19121951,1.37445652 L5.34390244,1.37445652 L5.49658537,1.37445652 C6.56536585,1.8326087 7.78682927,2.13804348 8.85560976,2.29076087 C9.46634146,2.44347826 10.0770732,2.44347826 10.6878049,2.44347826 C11.2985366,2.44347826 11.9092683,2.29076087 12.3673171,1.98532609 C11.4512195,2.74891304 10.0770732,3.05434783 8.85560976,3.05434783 C7.63414634,3.05434783 6.41268293,2.90163043 5.03853659,2.59619565 L5.34390244,2.59619565 C4.5804878,2.74891304 3.9697561,3.20706522 3.51170732,3.81793478 C3.35902439,4.12336957 3.20634146,4.42880435 3.05365854,4.88695652 C3.05365854,5.03967391 2.90097561,5.3451087 2.90097561,5.49782609 C2.90097561,5.65054348 2.74829268,5.95597826 2.74829268,6.10869565 L2.74829268,5.80326087 C3.20634146,7.78858696 3.66439024,9.77391304 4.27512195,11.7592391 C4.5804878,12.6755435 4.88585366,13.7445652 5.34390244,14.6608696 C5.80195122,15.5771739 6.10731707,16.4934783 6.56536585,17.4097826 C7.48146341,19.2423913 8.39756098,21.075 9.46634146,22.7548913 C10.0770732,23.6711957 10.535122,24.4347826 11.1458537,25.1983696 C11.4512195,25.6565217 11.7565854,25.9619565 12.0619512,26.4201087 C12.3673171,26.7255435 12.6726829,27.1836957 12.9780488,27.4891304 L11.4512195,27.1836957 L12.2146341,26.8782609 L12.9780488,26.5728261 C13.4360976,26.2673913 13.8941463,25.9619565 14.3521951,25.6565217 C14.8102439,25.1983696 15.2682927,24.8929348 15.7263415,24.4347826 C16.1843902,23.9766304 16.642439,23.5184783 16.9478049,23.0603261 C17.7112195,22.1440217 18.4746341,21.075 19.2380488,20.0059783 C20.0014634,18.9369565 20.6121951,17.8679348 21.2229268,16.6461957 C24.1239024,12.0646739 26.1087805,7.17771739 27.9409756,2.13804348 Z" id="XMLID_33_"></path>
                    </g>
                    <g id="XMLID_99_" transform="translate(157.263415, 163.407609)" fill="#666666" fill-rule="nonzero">
                        <path d="M1.22146341,12.5228261 C1.22146341,12.5228261 1.98487805,11.9119565 3.05365854,10.8429348 C4.12243902,9.77391304 5.64926829,8.39945652 7.02341463,6.87228261 C8.39756098,5.3451087 9.61902439,3.81793478 10.382439,2.44347826 C10.535122,2.13804348 10.6878049,1.8326087 10.8404878,1.52717391 C10.9931707,1.22173913 11.1458537,1.06902174 11.1458537,0.763586957 C11.2985366,0.305434783 11.4512195,0.152717391 11.4512195,0.152717391 C11.4512195,0.152717391 11.4512195,0.458152174 11.2985366,0.763586957 C11.2985366,0.916304348 11.1458537,1.22173913 10.9931707,1.52717391 C10.8404878,1.8326087 10.8404878,2.13804348 10.535122,2.44347826 C9.92439024,3.81793478 8.85560976,5.65054348 7.48146341,7.17771739 C5.03853659,10.5375 2.13756098,13.4391304 2.13756098,13.4391304 C1.83219512,13.7445652 1.37414634,13.7445652 1.06878049,13.4391304 C0.763414634,13.1336957 0.763414634,12.8282609 1.22146341,12.5228261 C1.06878049,12.5228261 1.22146341,12.5228261 1.22146341,12.5228261 Z" id="XMLID_101_"></path>
                    </g>
                    <g id="XMLID_96_" transform="translate(152.682927, 160.353261)" fill="#666666" fill-rule="nonzero">
                        <path d="M1.6795122,5.95597826 C1.6795122,5.95597826 1.83219512,5.95597826 2.13756098,6.10869565 C2.44292683,6.10869565 2.90097561,6.26141304 3.35902439,6.10869565 C3.9697561,6.10869565 4.5804878,5.95597826 5.19121951,5.80326087 C5.80195122,5.65054348 6.56536585,5.3451087 7.17609756,5.03967391 C7.48146341,4.88695652 7.78682927,4.73423913 8.09219512,4.42880435 C8.39756098,4.27608696 8.70292683,3.97065217 9.00829268,3.81793478 C9.61902439,3.35978261 10.0770732,2.90163043 10.535122,2.44347826 C10.9931707,1.98532609 11.2985366,1.6798913 11.4512195,1.37445652 C11.6039024,1.06902174 11.7565854,0.916304348 11.7565854,0.916304348 C11.7565854,0.916304348 11.6039024,1.06902174 11.4512195,1.37445652 C11.2985366,1.6798913 10.9931707,2.13804348 10.6878049,2.59619565 C10.382439,3.05434783 9.92439024,3.66521739 9.31365854,4.12336957 C9.00829268,4.42880435 8.70292683,4.58152174 8.39756098,4.88695652 C8.09219512,5.1923913 7.78682927,5.3451087 7.48146341,5.65054348 C6.87073171,6.10869565 6.10731707,6.56684783 5.34390244,6.87228261 C4.5804878,7.17771739 3.9697561,7.33043478 3.35902439,7.48315217 C2.74829268,7.63586957 2.13756098,7.63586957 1.83219512,7.63586957 C1.52682927,7.63586957 1.22146341,7.63586957 1.22146341,7.63586957 L1.6795122,5.95597826 Z" id="XMLID_98_"></path>
                    </g>
                    <g id="XMLID_10_" transform="translate(83.975610, 142.027174)" fill="#666666" fill-rule="nonzero">
                        <path d="M32.8268293,6.26141304 C32.0634146,7.94130435 31.1473171,9.46847826 30.0785366,10.9956522 C29.0097561,12.5228261 27.9409756,13.8972826 26.7195122,15.4244565 C26.1087805,16.1880435 25.4980488,16.798913 24.8873171,17.4097826 C24.2765854,18.0206522 23.6658537,18.7842391 22.902439,19.3951087 C22.2917073,20.0059783 21.5282927,20.6168478 20.764878,21.2277174 C20.0014634,21.838587 19.2380488,22.2967391 18.4746341,22.9076087 L18.78,22.7548913 C17.8639024,23.823913 16.9478049,24.7402174 15.8790244,25.5038043 C15.2682927,25.9619565 14.8102439,26.4201087 14.0468293,26.7255435 C13.7414634,26.8782609 13.2834146,27.0309783 12.9780488,27.1836957 C12.52,27.336413 12.0619512,27.4891304 11.1458537,27.336413 C11.2985366,27.336413 10.535122,27.0309783 10.382439,27.0309783 C10.2297561,26.8782609 10.0770732,26.7255435 9.92439024,26.4201087 C9.77170732,26.1146739 9.61902439,25.8092391 9.61902439,25.5038043 C9.46634146,25.0456522 9.46634146,24.5875 9.46634146,24.2820652 C9.46634146,23.5184783 9.46634146,22.9076087 9.61902439,22.2967391 C9.77170732,21.075 9.92439024,19.7005435 9.92439024,18.4788043 L9.92439024,19.0896739 C9.77170732,18.326087 9.46634146,17.5625 9.16097561,16.798913 C8.85560976,16.0353261 8.5502439,15.2717391 8.09219512,14.5081522 C7.32878049,12.9809783 6.56536585,11.6065217 5.64926829,10.2320652 C5.19121951,9.62119565 4.73317073,8.8576087 4.27512195,8.24673913 C3.81707317,7.63586957 3.20634146,7.025 2.74829268,6.41413043 L2.2902439,5.95597826 C2.13756098,5.80326087 1.98487805,5.65054348 1.83219512,5.3451087 C1.52682927,4.88695652 1.22146341,4.42880435 1.06878049,3.81793478 C0.916097561,3.20706522 0.916097561,2.29076087 1.37414634,1.8326087 C1.83219512,1.37445652 2.2902439,1.06902174 2.74829268,0.916304348 L3.35902439,0.916304348 C3.20634146,0.916304348 3.20634146,0.916304348 3.20634146,0.916304348 C3.20634146,0.916304348 3.20634146,0.916304348 3.20634146,0.916304348 L3.35902439,0.916304348 L3.51170732,0.916304348 L3.9697561,0.916304348 L4.88585366,0.763586957 L6.87073171,0.610869565 L10.6878049,0.152717391 C9.46634146,0.610869565 8.24487805,1.06902174 7.02341463,1.37445652 C6.41268293,1.52717391 5.80195122,1.6798913 5.19121951,1.98532609 L4.27512195,2.29076087 L3.81707317,2.44347826 L3.51170732,2.44347826 L3.35902439,2.44347826 L3.20634146,2.44347826 C3.20634146,2.44347826 3.20634146,2.44347826 2.90097561,2.44347826 L3.51170732,2.44347826 C3.20634146,2.59619565 2.90097561,2.90163043 2.90097561,3.05434783 C2.90097561,3.20706522 2.90097561,3.35978261 2.90097561,3.5125 C3.05365854,3.66521739 3.20634146,3.97065217 3.35902439,4.12336957 C3.51170732,4.27608696 3.66439024,4.27608696 3.66439024,4.42880435 L4.12243902,4.88695652 C4.73317073,5.49782609 5.49658537,6.10869565 6.10731707,6.71956522 C6.71804878,7.33043478 7.32878049,8.09402174 7.78682927,8.7048913 C8.85560976,10.0793478 9.77170732,11.6065217 10.6878049,13.1336957 C11.1458537,13.8972826 11.4512195,14.6608696 11.7565854,15.5771739 L12.2146341,16.798913 C12.3673171,17.2570652 12.52,17.5625 12.6726829,18.0206522 L12.8253659,18.326087 L12.8253659,18.6315217 C12.6726829,20.0059783 12.6726829,21.2277174 12.52,22.4494565 C12.52,23.0603261 12.3673171,23.6711957 12.3673171,24.2820652 C12.3673171,24.5875 12.3673171,24.7402174 12.3673171,24.8929348 C12.3673171,24.8929348 12.3673171,25.0456522 12.3673171,24.8929348 C12.3673171,24.8929348 12.2146341,24.7402174 12.2146341,24.7402174 C12.2146341,24.7402174 12.0619512,24.7402174 12.0619512,24.5875 C12.0619512,24.5875 11.9092683,24.5875 11.9092683,24.5875 C11.6039024,24.5875 11.7565854,24.5875 11.9092683,24.5875 C12.0619512,24.5875 12.3673171,24.4347826 12.52,24.2820652 C12.9780488,23.9766304 13.4360976,23.6711957 13.8941463,23.3657609 C14.8102439,22.6021739 15.7263415,21.838587 16.642439,20.9222826 L16.795122,20.7695652 L16.9478049,20.6168478 C17.7112195,20.1586957 18.4746341,19.7005435 19.0853659,19.0896739 C19.8487805,18.6315217 20.4595122,18.0206522 21.2229268,17.5625 C22.5970732,16.4934783 23.9712195,15.2717391 25.1926829,14.05 C27.9409756,11.4538043 30.5365854,8.8576087 32.8268293,6.26141304 Z" id="XMLID_35_"></path>
                    </g>
                    <g id="XMLID_90_" transform="translate(88.556098, 146.608696)" fill="#666666" fill-rule="nonzero">
                        <polygon id="XMLID_151_" points="0 0.916304348 6.26 0.152717391 0.916097561 3.66521739"></polygon>
                    </g>
                    <g id="XMLID_82_" transform="translate(91.609756, 149.663043)" fill="#666666" fill-rule="nonzero">
                        <polygon id="XMLID_95_" points="1.22146341 3.81793478 11.4512195 0.458152174 2.44292683 6.56684783"></polygon>
                    </g>
                    <g id="XMLID_76_" transform="translate(93.136585, 151.190217)" fill="#666666" fill-rule="nonzero">
                        <polygon id="XMLID_92_" points="1.06878049 7.78858696 14.657561 1.37445652 2.74829268 10.3847826"></polygon>
                    </g>
                    <g id="XMLID_73_" transform="translate(67.180488, 131.336957)" fill="#666666" fill-rule="nonzero">
                        <path d="M0.305365854,7.63586957 C0.305365854,7.63586957 2.13756098,6.71956522 4.88585366,5.65054348 C7.63414634,4.58152174 11.4512195,3.20706522 15.2682927,2.29076087 C16.1843902,1.98532609 17.2531707,1.8326087 18.1692683,1.6798913 C19.0853659,1.52717391 20.1541463,1.37445652 21.0702439,1.22173913 C21.9863415,1.06902174 22.902439,0.916304348 23.6658537,0.916304348 C24.5819512,0.916304348 25.3453659,0.763586957 26.1087805,0.763586957 C26.8721951,0.763586957 27.4829268,0.763586957 28.0936585,0.763586957 C28.7043902,0.763586957 29.162439,0.916304348 29.6204878,0.916304348 C30.5365854,1.06902174 30.9946341,1.06902174 30.9946341,1.06902174 C30.9946341,1.06902174 30.5365854,1.06902174 29.6204878,1.06902174 C29.162439,1.06902174 28.7043902,1.06902174 28.0936585,1.06902174 C27.4829268,1.06902174 26.8721951,1.06902174 26.1087805,1.22173913 C25.3453659,1.37445652 24.5819512,1.52717391 23.8185366,1.52717391 C23.055122,1.6798913 22.1390244,1.8326087 21.2229268,2.13804348 C20.3068293,2.44347826 19.3907317,2.59619565 18.4746341,2.90163043 C17.5585366,3.20706522 16.642439,3.5125 15.7263415,3.81793478 C12.0619512,5.1923913 8.5502439,6.71956522 5.95463415,8.09402174 C3.35902439,9.46847826 1.6795122,10.3847826 1.6795122,10.3847826 L0.305365854,7.63586957 Z" id="XMLID_162_"></path>
                    </g>
                    <g id="XMLID_69_" transform="translate(100.770732, 137.445652)" fill="#666666" fill-rule="nonzero">
                        <path d="M0.610731707,1.06902174 C0.610731707,1.06902174 7.78682927,2.29076087 18.6273171,4.27608696 C23.9712195,5.1923913 30.3839024,6.26141304 37.1019512,7.33043478 C43.82,8.39945652 50.9960976,9.46847826 58.324878,10.5375 C65.5009756,11.6065217 72.8297561,12.5228261 79.5478049,13.1336957 C82.9068293,13.4391304 86.2658537,13.7445652 89.3195122,14.05 C92.3731707,14.2027174 95.4268293,14.3554348 98.175122,14.5081522 C100.923415,14.5081522 103.366341,14.5081522 105.656585,14.5081522 C107.946829,14.5081522 109.779024,14.2027174 111.305854,14.05 C112.832683,13.7445652 114.054146,13.5918478 114.970244,13.286413 C115.733659,13.1336957 116.191707,12.9809783 116.191707,12.9809783 C116.191707,12.9809783 115.733659,13.1336957 114.970244,13.4391304 C114.206829,13.7445652 112.985366,14.05 111.305854,14.3554348 C109.779024,14.6608696 107.794146,14.9663043 105.503902,15.1190217 C103.213659,15.2717391 100.770732,15.4244565 98.022439,15.4244565 C95.2741463,15.4244565 92.3731707,15.4244565 89.1668293,15.2717391 C85.9604878,15.1190217 82.7541463,14.9663043 79.242439,14.6608696 C72.3717073,14.05 65.1956098,13.1336957 57.8668293,12.2173913 C50.6907317,11.1483696 43.3619512,9.92663043 36.6439024,8.8576087 C29.9258537,7.63586957 23.6658537,6.41413043 18.3219512,5.3451087 C12.9780488,4.27608696 8.5502439,3.20706522 5.34390244,2.59619565 C2.44292683,1.37445652 0.610731707,1.06902174 0.610731707,1.06902174 Z" id="XMLID_72_"></path>
                    </g>
                    <g id="XMLID_6_" transform="translate(218.336585, 151.190217)" fill="#666666" fill-rule="nonzero">
                        <path d="M1.52682927,6.26141304 C1.52682927,6.26141304 2.74829268,5.49782609 4.5804878,4.42880435 C6.41268293,3.5125 9.00829268,2.29076087 11.7565854,1.52717391 C12.3673171,1.37445652 13.1307317,1.22173913 13.7414634,0.916304348 C14.3521951,0.763586957 15.1156098,0.610869565 15.7263415,0.610869565 C16.3370732,0.610869565 16.9478049,0.458152174 17.5585366,0.458152174 C18.1692683,0.458152174 18.78,0.458152174 19.2380488,0.458152174 C19.6960976,0.458152174 20.3068293,0.610869565 20.6121951,0.610869565 C21.0702439,0.610869565 21.3756098,0.763586957 21.6809756,0.763586957 C22.2917073,0.916304348 22.5970732,0.916304348 22.5970732,0.916304348 C22.5970732,0.916304348 22.2917073,0.916304348 21.6809756,0.763586957 C21.3756098,0.763586957 21.0702439,0.610869565 20.6121951,0.610869565 C20.1541463,0.610869565 19.6960976,0.610869565 19.2380488,0.610869565 C18.78,0.610869565 18.1692683,0.763586957 17.5585366,0.763586957 C16.9478049,0.916304348 16.3370732,1.06902174 15.7263415,1.06902174 C15.1156098,1.22173913 14.504878,1.37445652 13.8941463,1.6798913 C13.2834146,1.98532609 12.6726829,2.13804348 12.0619512,2.44347826 C9.61902439,3.5125 7.17609756,4.88695652 5.49658537,5.95597826 C3.81707317,7.025 2.74829268,7.94130435 2.74829268,7.94130435 C2.2902439,8.39945652 1.52682927,8.24673913 1.06878049,7.78858696 C0.763414634,7.48315217 0.916097561,6.87228261 1.52682927,6.26141304 C1.37414634,6.41413043 1.37414634,6.41413043 1.52682927,6.26141304 Z" id="XMLID_84_"></path>
                    </g>
                    <g id="XMLID_3_" transform="translate(215.282927, 157.298913)" fill="#666666" fill-rule="nonzero">
                        <path d="M0.916097561,7.48315217 C0.916097561,7.48315217 5.03853659,5.49782609 9.31365854,3.66521739 C11.4512195,2.74891304 13.5887805,1.98532609 15.2682927,1.52717391 C15.7263415,1.37445652 16.0317073,1.37445652 16.3370732,1.22173913 C16.642439,1.06902174 16.9478049,1.06902174 17.2531707,1.06902174 C17.5585366,1.06902174 17.7112195,1.06902174 17.8639024,1.06902174 C18.0165854,1.06902174 18.0165854,1.06902174 18.0165854,1.06902174 C18.0165854,1.06902174 18.0165854,1.06902174 17.8639024,1.06902174 C17.7112195,1.06902174 17.5585366,1.06902174 17.2531707,1.06902174 C16.9478049,1.06902174 16.795122,1.22173913 16.3370732,1.37445652 C16.0317073,1.52717391 15.7263415,1.6798913 15.2682927,1.8326087 C13.7414634,2.44347826 11.7565854,3.66521739 9.77170732,4.73423913 C5.80195122,7.025 1.98487805,9.46847826 1.98487805,9.46847826 C1.52682927,9.77391304 0.763414634,9.62119565 0.45804878,9.16304348 C0.152682927,8.7048913 0.305365854,7.94130435 0.916097561,7.48315217 C0.916097561,7.63586957 0.916097561,7.48315217 0.916097561,7.48315217 Z" id="XMLID_78_"></path>
                    </g>
                    <path d="M63.5160976,135.918478 C63.5160976,135.765761 63.3634146,135.765761 63.3634146,135.613043 C63.3634146,135.154891 63.0580488,134.849457 62.7526829,134.696739 C62.7526829,134.696739 62.1419512,134.544022 61.9892683,134.544022 C61.6839024,134.391304 61.2258537,134.391304 60.9204878,134.544022 C60.7678049,134.544022 59.8517073,134.849457 59.6990244,135.002174 C59.0882927,135.307609 58.7829268,135.765761 58.477561,136.529348 C58.1721951,136.834783 58.1721951,137.445652 58.6302439,137.751087 C59.5463415,138.209239 60.615122,138.820109 61.6839024,138.514674 C61.9892683,138.514674 62.4473171,138.361957 62.6,138.056522 C62.9053659,137.751087 63.0580488,137.445652 63.0580488,136.9875 C63.2107317,136.682065 63.2107317,136.682065 63.2107317,136.37663 C63.3634146,136.529348 63.6687805,136.071196 63.5160976,135.918478 Z" id="XMLID_2_" fill="#666666" fill-rule="nonzero"></path>
                    <g id="XMLID_303_" transform="translate(268.721951, 108.429348)" fill="#666666" fill-rule="nonzero">
                        <path d="M5.34390244,1.6798913 C5.34390244,1.6798913 5.34390244,2.59619565 5.19121951,3.5125 C5.03853659,3.97065217 4.88585366,4.42880435 4.5804878,4.88695652 C4.27512195,5.3451087 3.66439024,5.49782609 3.35902439,5.95597826 C2.59560976,6.71956522 1.98487805,7.63586957 1.6795122,8.39945652 C1.52682927,8.7048913 1.37414634,9.16304348 1.37414634,9.31576087 C1.37414634,9.62119565 1.37414634,9.77391304 1.37414634,9.77391304 L1.06878049,9.77391304 C1.06878049,9.77391304 1.06878049,9.62119565 0.916097561,9.31576087 C0.916097561,9.16304348 0.763414634,9.01032609 0.763414634,8.8576087 C0.763414634,8.7048913 0.610731707,8.39945652 0.610731707,8.24673913 C0.610731707,7.78858696 0.610731707,7.17771739 0.763414634,6.56684783 C0.916097561,5.95597826 1.06878049,5.3451087 1.37414634,4.73423913 C1.6795122,4.12336957 1.83219512,3.5125 2.13756098,2.90163043 C2.44292683,2.44347826 3.05365854,2.13804348 3.51170732,1.8326087 C4.42780488,1.37445652 5.34390244,1.52717391 5.34390244,1.52717391 L5.34390244,1.6798913 Z" id="XMLID_310_"></path>
                    </g>
                    <path d="M264.446829,113.774457 C264.446829,113.774457 264.446829,113.621739 264.294146,113.621739 C264.294146,113.316304 264.141463,113.163587 263.836098,113.01087 C263.836098,113.01087 263.530732,112.858152 263.378049,112.858152 C263.225366,112.858152 262.92,112.858152 262.767317,112.858152 C262.614634,112.858152 262.156585,113.01087 262.003902,113.163587 C261.698537,113.316304 261.393171,113.621739 261.240488,114.079891 C261.087805,114.385326 261.087805,114.690761 261.240488,114.843478 C261.85122,115.148913 262.461951,115.454348 263.072683,115.30163 C263.225366,115.30163 263.530732,115.148913 263.683415,114.996196 C263.836098,114.843478 263.98878,114.690761 263.98878,114.385326 C264.141463,114.232609 264.141463,114.232609 264.141463,114.079891 C264.294146,114.079891 264.446829,113.927174 264.446829,113.774457 Z" id="XMLID_113_" fill="#666666" fill-rule="nonzero"></path>
                    <g id="XMLID_160_" transform="translate(47.331707, 111.483696)" fill="#666666" fill-rule="nonzero">
                        <path d="M38.9341463,0.610869565 C38.9341463,0.610869565 36.7965854,1.8326087 33.284878,3.05434783 C31.6053659,3.66521739 29.4678049,4.27608696 27.3302439,4.88695652 C26.2614634,5.03967391 25.04,5.3451087 23.8185366,5.49782609 C22.5970732,5.65054348 21.3756098,5.80326087 20.1541463,5.95597826 C17.7112195,6.26141304 15.2682927,6.56684783 12.9780488,6.71956522 C11.9092683,6.87228261 10.6878049,6.87228261 9.61902439,6.87228261 C8.5502439,6.87228261 7.63414634,6.87228261 6.71804878,6.71956522 C5.80195122,6.71956522 4.88585366,6.56684783 4.27512195,6.41413043 C3.51170732,6.26141304 2.90097561,6.26141304 2.44292683,6.10869565 C1.37414634,5.80326087 0.763414634,5.65054348 0.763414634,5.65054348 L0.763414634,5.49782609 C0.763414634,5.49782609 1.37414634,5.65054348 2.44292683,5.65054348 C2.90097561,5.80326087 3.66439024,5.80326087 4.27512195,5.80326087 C5.03853659,5.80326087 5.80195122,5.95597826 6.71804878,5.80326087 C7.63414634,5.80326087 8.5502439,5.80326087 9.61902439,5.65054348 C10.6878049,5.49782609 11.7565854,5.49782609 12.8253659,5.3451087 C15.1156098,5.03967391 17.4058537,4.58152174 19.8487805,4.12336957 C22.1390244,3.66521739 24.5819512,3.05434783 26.7195122,2.44347826 C28.8570732,1.98532609 30.9946341,1.52717391 32.8268293,1.22173913 C36.3385366,0.610869565 38.9341463,0.305434783 38.9341463,0.305434783 L38.9341463,0.610869565 Z" id="XMLID_318_"></path>
                    </g>
                    <path d="M75.8834146,122.479348 C75.8834146,122.479348 75.8834146,122.32663 75.7307317,122.32663 C75.7307317,122.021196 75.5780488,121.868478 75.2726829,121.715761 C75.2726829,121.715761 74.9673171,121.563043 74.8146341,121.563043 C74.6619512,121.563043 74.3565854,121.563043 74.2039024,121.563043 C74.0512195,121.563043 73.5931707,121.715761 73.4404878,121.868478 C72.982439,122.021196 72.8297561,122.32663 72.6770732,122.784783 C72.5243902,123.090217 72.5243902,123.395652 72.6770732,123.54837 C73.2878049,123.853804 73.8985366,124.159239 74.5092683,124.006522 C74.6619512,124.006522 74.9673171,123.853804 75.12,123.701087 C75.2726829,123.54837 75.4253659,123.395652 75.4253659,123.090217 C75.5780488,122.9375 75.5780488,122.9375 75.5780488,122.784783 C75.8834146,122.9375 76.0360976,122.632065 75.8834146,122.479348 Z" id="XMLID_4_" fill="#666666" fill-rule="nonzero"></path>
                </g>
            </g>
        </g>
    </g>
</svg>